<svg  viewBox="0 0 55 82" version="1.1" xmlns="http://www.w3.org/2000/svg" xmlns:xlink="http://www.w3.org/1999/xlink">
    <defs></defs>
    <g stroke="none" stroke-width="1" fill-rule="evenodd" fill="#ffffff">
        <g transform="translate(-61.000000, -65.000000)">
            <path d="M115.941858,140.009075 C115.596718,138.173687 114.150981,136.55523 112.209205,136.935022 C110.424427,137.283355 109.397675,138.77172 109.742494,140.607436 C109.90463,141.47057 110.560236,142.069914 111.009721,142.429061 C111.342982,142.756751 111.8326,143.05036 111.902913,143.708688 C111.940156,144.129441 111.65698,144.454509 111.259507,144.705847 C108.383444,146.146369 106.314206,143.812566 106.314206,141.888374 C106.314206,132.932296 104.444669,128.316464 96.1070401,126.998497 L96.1070401,126.886428 C97.1771359,126.770426 96.9581724,126.792381 98.1120651,126.578072 L98.955813,126.427663 C100.031367,126.212043 100.513279,126.150437 101.450456,125.83094 C105.193062,124.567698 108.45183,121.986489 108.45183,117.150777 C108.45183,110.885029 102.253108,108.082957 97.0159634,107.696284 L97.0159634,107.587163 C101.611307,106.872801 107.222167,104.456419 107.222167,98.8493268 C107.222167,90.9389059 98.7805138,90.0023698 92.9018897,90.0023698 L78.9013895,90.0023698 L78.9013895,85.0581928 L84.993519,85.0581928 C91.1383025,85.0581928 98.9413652,82.8043455 98.9413652,75.1121657 C98.9413652,66.4293809 90.818847,65 84.0312996,65 L66.7707476,65 L66.7707476,66.3743291 L72.0608671,66.3743291 L72.0608671,90.0023698 L66.3434156,90.0023698 L66.3434156,91.3763712 L72.0608671,91.3763712 L72.0608671,125.172612 C72.0608671,127.644373 71.4203508,130.119083 68.5346559,130.119083 C67.8934974,130.119083 65.7558743,130.063048 65.64864,128.96365 C65.5953439,128.304012 66.0226758,127.920288 66.2897985,127.536563 C66.6644765,127.096804 67.1980796,126.382769 67.1980796,125.50194 C67.1980796,123.635094 65.9154415,122.370213 64.0992003,122.370213 C62.1214655,122.370213 61,124.240008 61,126.108165 C61,127.699097 62.2283788,129.680635 63.6718683,130.393687 C65.4351345,131.271567 66.5045882,131.494395 68.4807177,131.494395 C72.7559639,131.494395 76.2301633,128.96365 77.9934294,125.117888 C78.55047,123.898556 78.79865,122.573708 78.9013895,121.195774 L78.9013895,91.3763712 L82.0548491,91.3763712 L82.0548491,144.96636 L76.7634453,144.96636 L76.7634453,146.340361 L94.185491,146.340361 L94.185491,144.96636 L88.8937661,144.96636 L88.8979399,126.942463 L91.8516997,126.942463 C93.5096579,126.942463 95.0417602,127.324876 96.2335381,128.697567 C97.4461849,130.093196 98.8338099,134.031694 98.8338099,138.592802 C98.8338099,144.19629 101.663961,147 107.061957,147 C107.536806,147 108.018076,146.953468 108.499668,146.882687 C108.859898,146.849918 109.221733,146.808629 109.58678,146.737849 C110.438233,146.569744 111.110855,146.395085 111.728577,146.150629 L111.728577,146.14768 L111.729219,146.14768 C112.521597,145.835064 113.226646,145.407757 114.10828,144.733045 C115.392523,143.75522 116.234344,141.57412 115.941858,140.009075 L115.941858,140.009075 Z M78.8378378,66.5045872 L85.155892,66.5045872 C91.2014624,66.5045872 91.472973,71.2286712 91.472973,75.1826595 C91.472973,79.6872778 90.3937428,83.8073394 85.155892,83.8073394 L78.8378378,83.8073394 L78.8378378,66.5045872 L78.8378378,66.5045872 Z M88.5,91.3302752 C95.2600328,91.4988507 100.391892,90.240815 100.391892,99.1657288 C100.391892,105.485656 97.4972154,107.12844 93.3530713,107.12844 L88.5,107.12844 L88.5,91.3302752 L88.5,91.3302752 Z M95.0724453,125.183486 L88.5,125.183486 L88.5,108.633028 L93.4552684,108.633028 C98.7765954,108.686541 100.391892,111.854101 100.391892,116.908738 C100.391892,120.669433 99.609943,125.183486 95.0724453,125.183486 L95.0724453,125.183486 Z"></path>
        </g>
    </g>
</svg>