<?xml version="1.0" encoding="UTF-8" standalone="no"?>
<svg width="45px" height="28px" viewBox="0 0 45 28" version="1.1" xmlns="http://www.w3.org/2000/svg" xmlns:xlink="http://www.w3.org/1999/xlink">
    <defs></defs>
    <g stroke="none" stroke-width="1" fill="none" fill-rule="evenodd">
        <g transform="translate(-344.000000, -1223.000000)" fill="#FFFFFF">
            <g transform="translate(344.000000, 1223.000000)">
                <path d="M12.5581395,22.42 C13.1581402,22.42 13.7267477,22.3700122 14.2604686,22.25667 C14.8046547,22.143358 15.28605,21.963335 15.6907047,21.696672 C16.0953551,21.440019 16.4337279,21.090013 16.6779147,20.646682 C16.9221003,20.203353 17.0407036,19.630022 17.0407036,18.940012 C17.0407036,17.579992 16.6395422,16.616682 15.8441955,16.033332 C15.0488466,15.456672 13.988385,15.16999 12.6802455,15.16999 L6.08373733,15.16999 L6.08373733,22.41999 L12.5581594,22.41999 L12.5581395,22.42 Z M12.2232558,11.21 C13.3011628,11.21 14.1906977,10.966683 14.8953453,10.473336 C15.5930201,9.986672 15.9313919,9.180006 15.9313919,8.076666 C15.9313919,7.463324 15.8197636,6.956666 15.5930201,6.563326 C15.3592995,6.173342 15.0488341,5.863314 14.6581367,5.649996 C14.2709274,5.423342 13.8313926,5.269991 13.3220867,5.186648 C12.8232502,5.0933252 12.2965053,5.056674 11.7627844,5.056674 L6.08371116,5.056674 L6.08371116,11.209994 L12.2232495,11.209994 L12.2232558,11.21 Z M13.0081395,0.57 C14.3267442,0.57 15.5162826,0.679985 16.6046547,0.903313 C17.6860465,1.123314 18.6069767,1.489983 19.3883756,1.989983 C20.1558181,2.493309 20.7558209,3.159993 21.1883756,3.999993 C21.6069802,4.826653 21.8162805,5.863303 21.8162805,7.089993 C21.8162805,8.416653 21.502328,9.523313 20.87442,10.406643 C20.2395359,11.293331 19.3081374,12.016663 18.0593037,12.579983 C19.7581374,13.046658 21.0139514,13.866663 21.8476758,15.033323 C22.6848841,16.206663 23.0930247,17.613313 23.0930247,19.259973 C23.0930247,20.596643 22.8244207,21.746663 22.2906998,22.713313 C21.7500028,23.689998 21.0174405,24.483333 20.1104707,25.096643 C19.2000045,25.713312 18.1500091,26.166653 16.9744207,26.463313 C15.8127928,26.756648 14.6093044,26.906642 13.3744207,26.906642 L0.0139206977,26.906642 L0.0139206977,0.570042 L13.0081416,0.570042 L13.0081395,0.57 Z"></path>
                <path d="M38.0406977,12.3133 C37.3883724,11.626624 36.286043,11.2533 34.9395384,11.2533 C34.0639535,11.2533 33.3383756,11.393315 32.7592988,11.679966 C32.1906945,11.963291 31.7267414,12.316624 31.3709233,12.729956 C31.0185984,13.153296 30.7778986,13.599982 30.6348771,14.073306 C30.4953426,14.53995 30.4116216,14.959964 30.3872013,15.329956 L39.3034803,15.329956 C39.1744109,13.996646 38.6930166,13.009946 38.0406862,12.313296 L38.0406977,12.3133 Z M31.7441512,22.3333 C32.5639183,23.099993 33.7499686,23.48332 35.2883407,23.48332 C36.3941581,23.48332 37.3499686,23.216657 38.1488023,22.683302 C38.9441491,22.153303 39.4290314,21.583292 39.6139186,20.993302 L44.4418221,20.993302 C43.6639165,23.289962 42.4883407,24.929982 40.8836826,25.913312 C39.2964698,26.906629 37.3604233,27.399972 35.1034535,27.399972 C33.533686,27.399972 32.1174105,27.156625 30.847636,26.676644 C29.5778721,26.193307 28.5174,25.513314 27.6243802,24.626624 C26.7557756,23.73664 26.0790279,22.683294 25.5976326,21.449954 C25.1232143,20.219974 24.8825156,18.859954 24.8825156,17.383304 C24.8825156,15.959964 25.1301914,14.626624 25.6185638,13.396644 C26.1173993,12.159984 26.8046069,11.093304 27.7081022,10.199954 C28.6150793,9.29996 29.6894941,8.593294 30.9418231,8.073304 C32.1941522,7.556641 33.5755476,7.296632 35.1034545,7.296632 C36.7918231,7.296632 38.2708894,7.609956 39.537179,8.239961 C40.803458,8.863283 41.8360197,9.709961 42.6522987,10.766631 C43.4650877,11.823301 44.0441592,13.033291 44.403458,14.386631 C44.762761,15.739961 44.8883414,17.153291 44.7871814,18.633301 L30.3871814,18.633301 C30.3871814,20.139951 30.9209023,21.566621 31.7441616,22.333281 L31.7441512,22.3333 Z"></path>
                <rect x="29.2639186" y="2.3367" width="11.1732907" height="2.59998"></rect>
            </g>
        </g>
    </g>
</svg>