<?xml version="1.0" encoding="UTF-8" standalone="no"?>
<svg width="120px" height="120px" viewBox="0 0 120 120" version="1.1" xmlns="http://www.w3.org/2000/svg" xmlns:xlink="http://www.w3.org/1999/xlink">
    <defs></defs>
    <g stroke="none" stroke-width="1" fill="none" fill-rule="evenodd">
        <g transform="translate(-198.000000, -525.000000)" fill="#F34E40">
            <g transform="translate(60.000000, 525.000000)">
                <g transform="translate(138.000000, 0.000000)">
                    <path d="M0.699300699,119.403049 L0.699300699,0.0269090909 L119.466864,119.403049 L0.699300699,119.403049 L0.699300699,119.403049 Z M7.91608392,112.149399 L102.043625,112.149399 L7.91608392,17.5395245 L7.91608392,112.149399 L7.91608392,112.149399 Z"></path>
                    <path d="M118.737636,93.6787273 L97.1245895,89.848308 L26.7504367,19.1722716 L44.5494305,1.29694073 L114.923583,71.9729771 L118.737646,93.6787225 L118.737636,93.6787273 Z M109.805818,84.7087273 L108.186977,75.4959345 L44.5495592,11.5855709 L36.9949559,19.17256 L100.632374,83.0829236 L109.805804,84.7087036 L109.805818,84.7087273 Z"></path>
                    <path d="M24.54704,102.741847 L24.54704,47.3920073 L79.9501091,102.741847 L24.54704,102.741847 L24.54704,102.741847 Z M31.73552,95.5602206 L62.5953455,95.5602206 L31.73552,64.7299806 L31.73552,95.5602206 L31.73552,95.5602206 Z"></path>
                    <rect x="4.36363636" y="39.6350909" width="14.5454545" height="7.27494182"></rect>
                    <rect x="4.72727273" y="58.5441818" width="9.09090909" height="7.27494182"></rect>
                    <rect x="3.63636364" y="78.1805455" width="10.9090909" height="7.27494182"></rect>
                    <rect x="3.63636364" y="96.3623636" width="10.9090909" height="7.27494182"></rect>
                    <path d="M48.2076364,36.9349091 L43.0650364,31.7923091 L55.7923091,19.0650364 L60.9349091,24.2076364 L48.2076364,36.9349091 L48.2076364,36.9349091 Z"></path>
                </g>
            </g>
        </g>
    </g>
</svg>