<svg width="165px" height="165px" viewBox="0 0 165 165" version="1.1" xmlns="http://www.w3.org/2000/svg" xmlns:xlink="http://www.w3.org/1999/xlink">
    <defs></defs>
    <g stroke="none" stroke-width="1" fill="none" fill-rule="evenodd">
        <g transform="translate(-1148.000000, -540.000000)" fill="#F34E40">
            <g transform="translate(1148.000000, 540.000000)">
                <path d="M0.961538462,164.179192 L0.961538462,0.037 L164.266938,164.179192 L0.961538462,164.179192 L0.961538462,164.179192 Z M10.8846154,154.205423 L140.309985,154.205423 L10.8846154,24.1168462 L10.8846154,154.205423 L10.8846154,154.205423 Z"></path>
                <path d="M163.26425,128.80825 L133.546311,123.541424 L36.7818505,26.3618735 L61.255467,1.7832935 L158.019927,98.9628435 L163.264263,128.808244 L163.26425,128.80825 Z M150.983,116.4745 L148.757094,103.80691 L61.2556438,15.93016 L50.8680643,26.36227 L138.369514,114.23902 L150.98298,116.474468 L150.983,116.4745 Z"></path>
                <path d="M33.75218,141.27004 L33.75218,65.16401 L109.9314,141.27004 L33.75218,141.27004 L33.75218,141.27004 Z M43.63634,131.395303 L86.0686,131.395303 L43.63634,89.0037233 L43.63634,131.395303 L43.63634,131.395303 Z"></path>
                <rect x="6" y="54.49825" width="20" height="10.003045"></rect>
                <rect x="6.5" y="80.49825" width="12.5" height="10.003045"></rect>
                <rect x="5" y="107.49825" width="15" height="10.003045"></rect>
                <rect x="5" y="132.49825" width="15" height="10.003045"></rect>
                <path d="M66.2855,50.7855 L59.214425,43.714425 L76.714425,26.214425 L83.7855,33.2855 L66.2855,50.7855 L66.2855,50.7855 Z"></path>
            </g>
        </g>
    </g>
</svg>