<?xml version="1.0" encoding="UTF-8" standalone="no"?>
<svg width="50px" height="73px" viewBox="0 0 50 73" version="1.1" xmlns="http://www.w3.org/2000/svg" xmlns:xlink="http://www.w3.org/1999/xlink">
    <defs></defs>
    <g stroke="none" stroke-width="1" fill="none" fill-rule="evenodd">
        <g transform="translate(-695.000000, -758.000000)">
            <g transform="translate(403.000000, 758.000000)">
                <g transform="translate(292.000000, 0.000000)">
                    <g>
                        <path d="M4.10862944,24.6375 L45.9972081,24.6375 L43.0050761,58.0631571 L7.10050761,58.0631571 L4.10862944,24.6375 Z" fill="#F24E41"></path>
                        <path d="M8.59517766,70.8436321 L41.2883249,70.8436321 L45.9142132,13.8233321 L3.96954315,13.8233321 L8.59517766,70.8436321 L8.59517766,70.8436321 Z M6.83401015,72.8099393 L1.89593909,11.9404536 L1.97081218,11.857025 L47.9129442,11.857025 L47.9875635,11.9404536 L43.0494924,72.8099393 L6.83401015,72.8099393 L6.83401015,72.8099393 Z" fill="#373737"></path>
                        <rect fill="#373737" x="3.37715736" y="23.6228" width="43.1291878" height="2.02927486"></rect>
                        <rect fill="#373737" x="6.3786802" y="57.0380286" width="37.2667513" height="2.05037707"></rect>
                        <path d="M1.97233503,11.857025 L47.9114213,11.857025 L47.9114213,7.92467143 L1.97233503,7.92467143 L1.97233503,11.857025 L1.97233503,11.857025 Z M0.0581218274,13.8233321 L0.0581218274,5.95836429 L49.8253807,5.95836429 L49.8253807,13.8233321 L0.0581218274,13.8233321 L0.0581218274,13.8233321 Z" fill="#373737"></path>
                        <path d="M5.43502538,5.95836429 L44.448731,5.95836429 L42.5345178,2.02601071 L7.34923858,2.02601071 L5.43502538,5.95836429 L5.43502538,5.95836429 Z M2.88680203,7.92467143 L2.58324873,7.42018929 L6.16598985,0.0597035714 L43.7175127,0.0597035714 L47.3002538,7.42018929 L46.9969543,7.92467143 L2.88680203,7.92467143 L2.88680203,7.92467143 Z" fill="#373737"></path>
                    </g>
                </g>
            </g>
        </g>
    </g>
</svg>