<?xml version="1.0" encoding="UTF-8" standalone="no"?>
<svg width="35px" height="34px" viewBox="0 0 35 34" version="1.1" xmlns="http://www.w3.org/2000/svg" xmlns:xlink="http://www.w3.org/1999/xlink">
    <defs></defs>
    <g stroke="none" stroke-width="1" fill="none" fill-rule="evenodd">
        <g transform="translate(-651.000000, -1217.000000)" fill="#FFFFFF">
            <path d="M659.429944,1220.88143 C659.38131,1218.67815 657.802706,1217 655.239289,1217 C652.675873,1217 651,1218.67815 651,1220.88143 C651,1223.03907 652.62634,1224.76554 655.14202,1224.76554 L655.189907,1224.76554 C657.802706,1224.76554 659.429944,1223.03907 659.429944,1220.88143 Z M658.493317,1228.00062 L651,1228.00062 L651,1250.47174 L658.493317,1250.47174 L658.493317,1228.00062 Z M686,1238.11515 C686,1231.213 682.303323,1228.00062 677.372375,1228.00062 C673.393916,1228.00062 671.612693,1230.18168 670.618154,1231.71173 L670.618154,1228.52888 L663.123939,1228.52888 C663.222704,1230.63746 663.123939,1251 663.123939,1251 L670.618154,1251 L670.618154,1238.45027 C670.618154,1237.77869 670.666788,1237.10874 670.864918,1236.6279 C671.406483,1235.28622 672.639557,1233.89711 674.709744,1233.89711 C677.422356,1233.89711 678.506683,1235.95766 678.506683,1238.97734 L678.506683,1250.9994 L685.999701,1250.9994 L686,1238.11515 Z"></path>
        </g>
    </g>
</svg>