<svg viewBox="0 0 55 80" version="1.1" xmlns="http://www.w3.org/2000/svg" xmlns:xlink="http://www.w3.org/1999/xlink">
    <defs></defs>
    <g stroke="none" stroke-width="1" fill-rule="evenodd">
        <g transform="translate(-60.000000, -65.000000)">
            <g transform="translate(87.500000, 105.000000) rotate(0.000000) translate(-87.500000, -105.000000) translate(60.000000, 65.000000)">
                <path d="M34.4306395,58.7694024 L27.7247965,58.7694024 L27.7247965,42.3078884 L32.7809593,42.3078884 C38.2099709,42.3607968 39.8580523,45.5117131 39.8580523,50.5392829 C39.8580523,54.2798406 39.0602326,58.7694024 34.4306395,58.7694024 L34.4306395,58.7694024 Z M27.7247965,25.7373705 C34.3235174,25.8996016 39.3323547,24.6865339 39.3323547,33.2924303 C39.3323547,39.3864542 36.5068895,40.9705179 32.4618314,40.9705179 L27.7247965,40.9705179 L27.7247965,25.7373705 L27.7247965,25.7373705 Z M18.0379535,1.41880478 L24.266064,1.41880478 C30.2255698,1.41880478 30.4932151,6.01545817 30.4932151,9.86278884 C30.4932151,14.2458964 29.4293488,18.2551394 24.266064,18.2551394 L18.0379535,18.2551394 L18.0379535,1.41880478 L18.0379535,1.41880478 Z M54.9293314,73.0393625 C54.5859012,71.2541833 53.1459884,69.68 51.2120349,70.0494024 C49.4341279,70.3878884 48.4118314,71.8358566 48.7552616,73.6210359 C48.9164244,74.4605578 49.5693895,75.043506 50.017064,75.3931474 C50.3489826,75.7118725 50.8366279,75.9974502 50.906657,76.6377689 C50.94375,77.0466932 50.6620349,77.3628685 50.2661628,77.6073307 C47.401686,79.0087649 45.3404651,76.7384861 45.3404651,74.8669323 C45.3404651,66.1561753 43.4784593,61.6662948 35.1744186,60.3847012 L35.1744186,60.2756972 C36.2402035,60.1628685 36.0221221,60.1839044 37.171686,59.9754582 L38.0117151,59.8291633 C39.082936,59.6194422 39.562907,59.5598406 40.4963081,59.2487649 C44.2238372,58.0200797 47.4694767,55.5098008 47.4694767,50.8063745 C47.4694767,44.7120319 41.2957267,41.9862948 36.0796802,41.6105179 L36.0796802,41.5040637 C40.6568314,40.8095618 46.2447674,38.4589641 46.2447674,33.005259 C46.2447674,25.3112351 37.8371221,24.4003187 31.9821802,24.4003187 L23.2013663,24.4003187 L18.0380814,24.4003187 L18.0380814,19.5913944 L24.1056686,19.5913944 C30.2256977,19.5913944 37.9973256,17.3992032 37.9973256,9.9174502 C37.9973256,1.47219124 29.9075291,0.0822310757 23.1476453,0.0822310757 L5.95630814,0.0822310757 L5.95630814,1.41864542 L11.225436,1.41864542 L11.225436,24.4003187 L5.95557267,24.4003187 L5.95557267,25.7370518 L11.225436,25.7370518 L11.225436,58.6087649 C11.225436,61.0129084 10.5875,63.4196016 7.71311047,63.4196016 C7.07485465,63.4196016 4.94552326,63.3654183 4.8390407,62.2960956 C4.78563953,61.654502 5.21156977,61.2812749 5.47729651,60.9080478 C5.85046512,60.4803187 6.38223837,59.785498 6.38223837,58.9287649 C6.38223837,57.112988 5.10444767,55.8830279 3.29584302,55.8830279 C1.32575581,55.8830279 0.209127907,57.7013546 0.209127907,59.5184064 C0.209127907,61.0661355 1.43255814,62.9934661 2.86991279,63.6866932 C4.62607558,64.5408765 5.69122093,64.7572908 7.6597093,64.7572908 C11.9177326,64.7572908 15.377936,62.2960956 17.1340988,58.5555378 C17.6885756,57.369243 17.9357558,56.0809562 18.0380814,54.7407171 L18.0380814,35.7842231 L18.0380814,34.4490837 L18.0380814,25.7370518 L21.1788372,25.7370518 L21.1788372,77.8610359 L15.9090698,77.8610359 L15.9090698,79.1971315 L33.2606105,79.1971315 L33.2606105,77.8610359 L27.7223023,77.8610359 L27.7223023,60.3301992 L30.9365407,60.3301992 C32.5875,60.3301992 34.1134302,60.7021514 35.300407,62.0369721 C36.5081686,63.3944223 37.8905233,67.2251793 37.8905233,71.6618327 C37.8905233,77.1117131 40.7089535,79.8387251 46.0852035,79.8387251 C46.5584593,79.8387251 47.0374709,79.7937849 47.5171221,79.7246215 C47.8759012,79.692749 48.2365988,79.6529084 48.5998547,79.583745 C49.4478779,79.4205578 50.1177907,79.2503586 50.733343,79.0125896 L50.733343,79.0100398 L50.7336628,79.0100398 C51.5231686,78.7056574 52.2250581,78.2900398 53.1031395,77.6337849 C54.3822093,76.6827092 55.2209593,74.5615936 54.9293314,73.0393625 L54.9293314,73.0393625 Z"></path>
            </g>
        </g>
    </g>
</svg>
