<?xml version="1.0" encoding="UTF-8" standalone="no"?>
<svg width="35px" height="28px" viewBox="0 0 35 28" version="1.1" xmlns="http://www.w3.org/2000/svg" xmlns:xlink="http://www.w3.org/1999/xlink">
    <defs></defs>
    <g stroke="none" stroke-width="1" fill="none" fill-rule="evenodd">
        <g transform="translate(-502.000000, -1223.000000)" fill="#FFFFFF">
            <path d="M537.000061,1227.08334 L535.615614,1227.08334 C535.101309,1227.08334 534.375058,1227.82514 534.375058,1228.29959 L534.375058,1245.50307 C534.375058,1245.97752 535.101312,1246.62502 535.615614,1246.62502 L537.000061,1246.62502 L537.000061,1250.70836 L524.458379,1250.70836 L524.458379,1246.62502 L527.083382,1246.62502 L527.083382,1228.54166 L526.954078,1228.54166 L520.8242,1250.70836 L516.078777,1250.70836 L510.027649,1228.54166 L509.87501,1228.54166 L509.87501,1246.62502 L512.500013,1246.62502 L512.500013,1250.70836 L502,1250.70836 L502,1246.62502 L503.343614,1246.62502 C503.897781,1246.62502 504.625003,1245.97752 504.625003,1245.50307 L504.625003,1228.29959 C504.625003,1227.82515 503.897781,1227.08334 503.343614,1227.08334 L502,1227.08334 L502,1223 L515.128895,1223 L519.439734,1239.04169 L519.558345,1239.04169 L523.909054,1223 L537.000032,1223 L537.000032,1227.08334 L537.000061,1227.08334 Z"></path>
        </g>
    </g>
</svg>