<?xml version="1.0" encoding="UTF-8" standalone="no"?>
<svg width="35px" height="29px" viewBox="0 0 35 29" version="1.1" xmlns="http://www.w3.org/2000/svg" xmlns:xlink="http://www.w3.org/1999/xlink">
    <defs></defs>
    <g stroke="none" stroke-width="1" fill="none" fill-rule="evenodd">
        <g transform="translate(-192.000000, -1222.000000)" fill="#FFFFFF">
            <path d="M208.994497,1229.71445 L209.070365,1230.96879 L207.805894,1230.81519 C203.203218,1230.22643 199.182198,1228.22973 195.768125,1224.87632 L194.099023,1223.21241 L193.669102,1224.44114 C192.758683,1227.18019 193.34034,1230.07283 195.237047,1232.01833 C196.248624,1233.09347 196.021019,1233.24706 194.276049,1232.6071 C193.669102,1232.40231 193.138024,1232.24872 193.087446,1232.32551 C192.910419,1232.5047 193.517366,1234.83418 193.997865,1235.75573 C194.65539,1237.03566 195.99573,1238.28999 197.462517,1239.03235 L198.701699,1239.62112 L197.234912,1239.64671 C195.818704,1239.64671 195.768125,1239.67231 195.919862,1240.20988 C196.42565,1241.87379 198.423515,1243.6401 200.648985,1244.40805 L202.21693,1244.94563 L200.851301,1245.76478 C198.828146,1246.94232 196.45094,1247.60788 194.073733,1247.65908 C192.935709,1247.68468 192,1247.78707 192,1247.86387 C192,1248.11985 195.08531,1249.55338 196.88086,1250.11654 C202.267509,1251.78045 208.665735,1251.06369 213.470726,1248.22225 C216.884799,1246.19996 220.298873,1242.18098 221.892107,1238.28999 C222.751947,1236.2165 223.611788,1232.42791 223.611788,1230.61041 C223.611788,1229.43287 223.687656,1229.27928 225.103864,1227.87135 C225.938415,1227.0522 226.722388,1226.15625 226.874124,1225.90026 C227.127019,1225.41389 227.101729,1225.41389 225.811968,1225.84906 C223.662367,1226.61702 223.358894,1226.51463 224.42105,1225.36269 C225.205022,1224.54354 226.140731,1223.05882 226.140731,1222.62364 C226.140731,1222.54684 225.761389,1222.67484 225.331469,1222.90522 C224.876259,1223.16121 223.864682,1223.54519 223.105999,1223.77558 L221.74037,1224.21075 L220.501188,1223.366 C219.818373,1222.90522 218.857375,1222.39325 218.351586,1222.23966 C217.061825,1221.88128 215.08925,1221.93248 213.925936,1222.34206 C210.764757,1223.49399 208.766892,1226.46343 208.994497,1229.71445 Z"></path>
        </g>
    </g>
</svg>