<svg width="169px" height="168px" viewBox="0 0 169 168" version="1.1" xmlns="http://www.w3.org/2000/svg" xmlns:xlink="http://www.w3.org/1999/xlink">
    <defs></defs>
    <g stroke="none" stroke-width="1" fill="none" fill-rule="evenodd">
        <g transform="translate(-123.000000, -254.000000)" fill="#F34E40">
            <g transform="translate(122.000000, 253.000000)">
                <g transform="translate(85.500000, 68.000000) rotate(-0.000000) translate(-85.500000, -68.000000) translate(1.000000, 1.000000)">
                    <path d="M0.899525,133.2331 L0.899525,0.7669 L168.09905,0.7669 L168.09905,133.2331 L0.899525,133.2331 L0.899525,133.2331 Z M11.350475,122.843823 L157.65095,122.843823 L157.65095,11.1561769 L11.350475,11.1561769 L11.350475,122.843823 L11.350475,122.843823 Z"></path>
                </g>
                <g transform="translate(84.500000, 114.000000) rotate(0.000000) translate(-84.500000, -114.000000) translate(79.000000, 108.000000)">
                    <circle cx="5.75" cy="6.0229" r="5.25"></circle>
                </g>
                <g transform="translate(80.000000, 133.000000)">
                    <rect x="0" y="0" width="10" height="26"></rect>
                </g>
                <g transform="translate(85.000000, 164.000000) rotate(270.000000) translate(-85.000000, -164.000000) translate(80.000000, 125.000000)">
                    <rect x="0" y="0" width="10" height="78"></rect>
                </g>
                <g transform="translate(87.000000, 98.500000) rotate(270.000000) translate(-87.000000, -98.500000) translate(82.000000, 23.000000)">
                    <rect x="0" y="0" width="10" height="151"></rect>
                </g>
            </g>
        </g>
    </g>
</svg>