<?xml version="1.0" encoding="UTF-8" standalone="no"?>
<svg width="120px" height="82px" viewBox="0 0 120 82" version="1.1" xmlns="http://www.w3.org/2000/svg" xmlns:xlink="http://www.w3.org/1999/xlink">
    <defs></defs>
    <g stroke="none" stroke-width="1" fill="none" fill-rule="evenodd">
        <g transform="translate(-1148.000000, -255.000000)" fill="#F34E40">
            <g transform="translate(980.000000, 255.000000)">
                <g transform="translate(168.000000, 0.000000)">
                    <path d="M59.6511629,56.7692308 L59.440216,56.7678858 L59.2297704,56.7638738 L59.0198076,56.7571904 L58.8105596,56.7478666 L58.6018495,56.7359171 L58.3935806,56.721331 L58.1860001,56.7041326 L57.9792602,56.6843601 L57.773127,56.6620162 L57.5676431,56.637098 L57.3628119,56.6096284 L57.1588048,56.5796235 L56.9557275,56.5471411 L56.7532747,56.5121376 L56.5515825,56.4746327 L56.350748,56.4346642 L56.1508428,56.3922541 L55.9518991,56.3474366 L55.753671,56.3001643 L55.5563753,56.2504802 L55.360122,56.198445 L55.1647405,56.1440173 L54.9704963,56.0872832 L54.7770913,56.0281849 L54.5846431,55.966731 L54.3933971,55.9030398 L54.2031742,55.8370577 L54.0139418,55.7687854 L53.8258413,55.6982726 L53.6388108,55.6255221 L53.4529398,55.5505589 L53.2682386,55.4734223 L53.0847203,55.3941074 L52.9022914,55.3126054 L52.7211002,55.2289592 L52.5411773,55.1432296 L52.3624209,55.0553503 L52.1848792,54.9653699 L52.0086247,54.8733126 L51.8337167,54.7792437 L51.6600276,54.6830881 L51.4875826,54.5848699 L51.3165343,54.4846691 L51.146895,54.3825271 L50.9785921,54.2783939 L50.8116705,54.1723159 L50.6460142,54.0642148 L50.481797,53.954199 L50.3190755,53.8423284 L50.1577925,53.7285698 L49.9978733,53.6128777 L49.8394062,53.4953023 L49.6825022,53.3759456 L49.5270774,53.2547521 L49.3731221,53.1317129 L49.220681,53.0068634 L49.0697904,52.8802396 L48.9204735,52.751863 L48.772723,52.6217366 L48.6265278,52.4898472 L48.4819585,52.3562599 L48.3389666,52.2209374 L48.1976025,52.083915 L48.0579077,51.9452474 L47.9198693,51.8049158 L47.7834687,51.6629073 L47.6487603,51.5192636 L47.5157792,51.3740353 L47.3844882,51.2271737 L47.2549523,51.0787497 L47.1271583,50.9287522 L47.0011091,50.7771737 L46.8768261,50.6240378 L46.7543452,50.4693806 L46.6337236,50.3132757 L46.5148653,50.1556058 L46.3978242,49.9964044 L46.2827172,49.8358468 L46.1694352,49.6737782 L46.0580352,49.5102542 L45.9485556,49.3453378 L45.8409794,49.1789861 L45.7353649,49.0112818 L45.6316719,48.8421589 L45.5299678,48.6716971 L45.4302541,48.4999141 L45.3325152,48.3267477 L45.2367845,48.1522527 L45.1431042,47.9764758 L45.0514949,47.7994639 L44.9619401,47.6211601 L44.8744707,47.4416122 L44.7890902,47.2608045 L44.7058077,47.0787321 L44.6246877,46.8955059 L44.5457459,46.7111684 L44.46895,46.5256184 L44.3943209,46.3388688 L44.3219196,46.1510415 L44.2517262,45.9620824 L44.1837569,45.7719746 L44.1180684,45.5808606 L44.0546547,45.3887083 L43.9935194,45.1954884 L43.934688,45.0012401 L43.8781741,44.805975 L43.8239995,44.6097141 L43.7721929,44.4125309 L43.722761,44.2144171 L43.6757064,44.0153329 L43.6310747,43.8153981 L43.5888622,43.6145997 L43.5490661,43.4128113 L43.5117562,43.2102991 L43.4769098,43.0069883 L43.4445456,42.8028073 L43.4146834,42.5978588 L43.3873479,42.3921713 L43.3625494,42.1858051 L43.3402938,41.9786761 L43.3206059,41.7708663 L43.3035021,41.5624553 L43.2889834,41.3533551 L43.2770756,41.1435783 L43.2677981,40.9333338 L43.2611465,40.7224636 L43.2571528,40.5110536 L43.255814,40.2991461 L43.2571528,40.0872387 L43.2611465,39.8758286 L43.2677981,39.6649585 L43.2770756,39.454714 L43.2889832,39.2449411 L43.3035021,39.0358313 L43.3206064,38.8274213 L43.3402938,38.6196161 L43.3625494,38.4124872 L43.3873479,38.206121 L43.4146834,38.0004335 L43.4445456,37.7954849 L43.4769084,37.5913135 L43.5117562,37.3879872 L43.5490683,37.1854706 L43.58886,36.983704 L43.6310747,36.7828883 L43.6757064,36.5829599 L43.722761,36.3838693 L43.7721966,36.1857477 L43.8239956,35.9885929 L43.8781699,35.7923268 L43.9346929,35.5970306 L43.9935194,35.4028041 L44.0546491,35.2095952 L44.1180743,35.0174079 L44.1837632,34.8262991 L44.2517262,34.6362091 L44.3219123,34.4472699 L44.3943131,34.2594374 L44.46895,34.0726682 L44.545755,33.8870969 L44.6246974,33.7027646 L44.705808,33.5195597 L44.7890904,33.3374873 L44.87446,33.156703 L44.9619403,32.977126 L45.0515073,32.7988046 L45.1431044,32.6218164 L45.2367714,32.4460648 L45.3325155,32.2715387 L45.4302544,32.0983789 L45.529968,31.9265892 L45.631688,31.7561071 L45.7353652,31.5870099 L45.8409797,31.4193056 L45.9485558,31.2529539 L46.0580354,31.0880375 L46.1694354,30.9245136 L46.2826977,30.7624734 L46.3978245,30.6018815 L46.5148656,30.4426864 L46.6337238,30.2850101 L46.7543454,30.1289118 L46.8768264,29.9742481 L47.0011332,29.8210892 L47.1271337,29.6695695 L47.2549523,29.5195364 L47.3845143,29.371089 L47.5157524,29.2242866 L47.6487328,29.0790526 L47.7834687,28.9353795 L47.9198981,28.793341 L48.0579372,28.653015 L48.1976023,28.5143767 L48.3389663,28.3773544 L48.4819266,28.2420618 L48.6264952,28.1084685 L48.7727559,27.9765199 L48.9205071,27.8463994 L49.0697555,27.7180816 L49.2206808,27.5914223 L49.3731218,27.4665791 L49.5270406,27.3435627 L49.6825392,27.2223117 L49.8394437,27.102961 L49.9978343,26.9854425 L50.157792,26.8697158 L50.3191149,26.7559355 L50.4817965,26.6440923 L50.6459726,26.5341041 L50.8116281,26.4259969 L50.978634,26.3198653 L51.1468945,26.2157647 L51.3165774,26.1135899 L51.4876263,26.0134016 L51.6599821,25.9152277 L51.8336706,25.8190723 L52.0086243,25.7249725 L52.1849253,25.6328974 L52.3624205,25.5429405 L52.5411293,25.4550846 L52.7210997,25.3693259 L52.9022909,25.2856861 L53.0846706,25.2041995 L53.2682381,25.1248636 L53.4529892,25.0477059 L53.6388607,24.9727491 L53.8258408,24.9000182 L54.0139413,24.8295053 L54.2031221,24.7612517 L54.3933447,24.6952633 L54.5846952,24.631537 L54.777091,24.5701061 L54.9704429,24.5110176 L55.1647936,24.4542524 L55.3601217,24.399846 L55.5564289,24.3477903 L55.7537253,24.2981188 L55.9517904,24.2508789 L56.1508428,24.2060303 L56.3508031,24.1636151 L56.5515825,24.1236574 L56.7532196,24.0861627 L56.9556722,24.0511529 L57.1588601,24.0186526 L57.3628672,23.9886541 L57.5676428,23.9611918 L57.7730712,23.9362804 L57.9792599,23.9139241 L58.1861112,23.8941473 L58.3935806,23.8769646 L58.6017384,23.8623798 L58.8105038,23.8504207 L59.0198627,23.841092 L59.2297701,23.8344167 L59.4402155,23.8303983 L59.6511626,23.8290598 L59.8621097,23.8303983 L60.0725551,23.8344167 L60.2824625,23.841092 L60.4918215,23.8504207 L60.7005869,23.8623798 L60.9087446,23.8769646 L61.1162035,23.8941465 L61.3230767,23.9139241 L61.529266,23.9362818 L61.7346824,23.9611917 L61.939458,23.988654 L62.1434651,24.0186525 L62.346653,24.0511528 L62.5491056,24.0861626 L62.7507427,24.1236573 L62.9515221,24.1636151 L63.1514578,24.2060251 L63.3505462,24.2508788 L63.5486255,24.2981252 L63.7458676,24.3477829 L63.9422147,24.3998457 L64.1375611,24.4542607 L64.331882,24.511017 L64.5252339,24.5701055 L64.7176297,24.6315364 L64.9089442,24.6952507 L65.0992141,24.7612511 L65.2884202,24.8295185 L65.4764839,24.9000174 L65.663464,24.9727483 L65.8493355,25.0477051 L66.034044,25.124845 L66.2176656,25.2041987 L66.400077,25.2857052 L66.581225,25.3693249 L66.7611955,25.4550836 L66.9399043,25.5429395 L67.1173994,25.6328964 L67.2937005,25.7249715 L67.4686541,25.8190713 L67.6423427,25.9152266 L67.8146985,26.0134005 L67.9856949,26.1135582 L68.1553886,26.2157318 L68.3237545,26.3198975 L68.4907497,26.4260304 L68.6563524,26.5341031 L68.8205285,26.6440912 L68.98321,26.7559345 L69.144533,26.8697148 L69.3044907,26.9854414 L69.4628525,27.1029387 L69.6198206,27.2223329 L69.7753073,27.3435846 L69.9291747,27.4665549 L70.0816442,27.5914212 L70.2325397,27.7180556 L70.3817938,27.8463727 L70.5296037,27.9765451 L70.6758588,28.1084944 L70.8203682,28.2420331 L70.963364,28.3773533 L71.1047217,28.5143757 L71.2443631,28.6529841 L71.3824617,28.7933703 L71.5188855,28.9354096 L71.6535922,29.0790513 L71.7865429,29.2242527 L71.9177866,29.3710544 L72.0473775,29.5195351 L72.1752259,29.6696029 L72.30125,29.8211589 L72.4254638,29.9742109 L72.5479571,30.1288739 L72.6686586,30.285084 L72.787454,30.4426854 L72.9044445,30.6018029 L73.0196051,30.762433 L73.1329229,30.9245527 L73.2443171,31.0880774 L73.3537696,31.2529532 L73.4613458,31.4193049 L73.5669603,31.5870091 L73.6706375,31.7561064 L73.7723313,31.9265446 L73.872077,32.0983781 L73.9698348,32.2715832 L74.0655541,32.446064 L74.1591962,32.6217694 L74.2508235,32.7988038 L74.3404078,32.9771727 L74.4278419,33.1566548 L74.5132404,33.3374867 L74.5965389,33.5196081 L74.6776278,33.7027643 L74.7565488,33.8870469 L74.8333808,34.0726679 L74.9080316,34.2594878 L74.9804129,34.4472696 L75.050599,34.6362089 L75.118562,34.8262988 L75.184251,35.0174076 L75.2476588,35.2095423 L75.3087949,35.4027507 L75.3676698,35.5971367 L75.4241648,35.7923802 L75.4783158,35.9885385 L75.5301148,36.185693 L75.5795703,36.3838687 L75.6266315,36.5830142 L75.671251,36.7828878 L75.7134657,36.9837035 L75.7532465,37.1854148 L75.7905649,37.3879311 L75.8254222,37.5913127 L75.8577938,37.7955397 L75.8876496,38.0004885 L75.9149778,38.2061204 L75.9397695,38.4124308 L75.9620374,38.6196153 L75.9817185,38.8274208 L75.9988292,39.0358305 L76.0133417,39.2449406 L76.0252557,39.4547132 L76.0345293,39.6650137 L76.0411791,39.8758281 L76.0451728,40.0872381 L76.0465116,40.2991456 L76.0451728,40.511053 L76.0411791,40.7224631 L76.0345293,40.9332774 L76.0252557,41.143578 L76.0133414,41.3533545 L75.9988292,41.562455 L75.9817189,41.7708658 L75.9620374,41.9786758 L75.9397695,42.1858603 L75.9149777,42.3921707 L75.8876496,42.5978027 L75.8577937,42.8027515 L75.8254205,43.006988 L75.7905647,43.2103544 L75.7532484,43.4128663 L75.7134632,43.6145994 L75.6712507,43.8153978 L75.6266312,44.015278 L75.5795701,44.2144171 L75.5301182,44.4125849 L75.4783118,44.6097679 L75.4241604,44.8059211 L75.3676744,45.0011334 L75.3087949,45.1955414 L75.2476532,45.3887609 L75.1842568,45.5808605 L75.1185683,45.7719745 L75.050599,45.9620823 L74.9804056,46.1510414 L74.9080237,46.3388181 L74.8333808,46.5256183 L74.7565578,46.711218 L74.6776373,46.8955058 L74.5965389,47.0786831 L74.5132404,47.2608045 L74.4278309,47.4416599 L74.3404078,47.6211129 L74.2508357,47.7994639 L74.1591962,47.9765218 L74.0655404,48.1522524 L73.9698346,48.3267024 L73.8720767,48.4999138 L73.7723313,48.6717407 L73.6706533,48.8421586 L73.5669602,49.0112815 L73.4613457,49.1789858 L73.3537696,49.3453375 L73.2443171,49.5102133 L73.1329229,49.673738 L73.0195851,49.8358861 L72.9044444,49.996482 L72.787454,50.1556058 L72.6686586,50.3132008 L72.5479571,50.4694173 L72.425464,50.6240737 L72.3012743,50.7771027 L72.1752015,50.9287171 L72.047378,51.0787494 L71.9178131,51.2272067 L71.7865163,51.3740676 L71.6535649,51.5192631 L71.5188857,51.6628755 L71.382491,51.8048847 L71.2443931,51.9452764 L71.1047219,52.0839145 L70.9633642,52.2209369 L70.8203367,52.3562872 L70.6758266,52.48982 L70.529637,52.6217101 L70.3818278,52.7518882 L70.2325053,52.880264 L70.0816444,53.0068631 L69.9291749,53.1317358 L69.7752707,53.254729 L69.6198578,53.3759232 L69.4628905,53.4953233 L69.3044522,53.6128774 L69.1445329,53.7285696 L68.98325,53.8423281 L68.8205285,53.9541987 L68.6563112,54.0642145 L68.4907078,54.1722811 L68.3237969,54.2783603 L68.1553885,54.3825589 L67.9857385,54.4846997 L67.8147425,54.5848698 L67.6422976,54.683088 L67.4686085,54.7792436 L67.2937004,54.8733126 L67.117446,54.9653698 L66.9399042,55.0553502 L66.7611479,55.1432296 L66.581225,55.2289592 L66.4000772,55.3125853 L66.2176166,55.3941071 L66.0340442,55.4734396 L65.8493857,55.5505586 L65.6635147,55.6255218 L65.4764841,55.6982723 L65.2884205,55.7687712 L65.0991627,55.8370572 L64.9088923,55.9030512 L64.7176821,55.9667305 L64.5252339,56.0281844 L64.3318289,56.0872827 L64.1376145,56.144008 L63.9422149,56.1984443 L63.7459216,56.2504865 L63.54868,56.300157 L63.3504375,56.3474358 L63.151458,56.3922587 L62.9515772,56.4346636 L62.7507427,56.4746321 L62.5490505,56.5121371 L62.3465977,56.5471406 L62.1435204,56.579623 L61.9395133,56.6096279 L61.7346821,56.6370975 L61.5292104,56.6620142 L61.3230765,56.6843595 L61.1163146,56.704133 L60.9087446,56.7213304 L60.7004757,56.7359166 L60.4917656,56.7478661 L60.2825175,56.7571898 L60.0725548,56.7638733 L59.8621092,56.7678853 L59.6511623,56.7692302 L59.6511629,56.7692308 Z M59.6511629,49.4490713 L59.769852,49.4483146 L59.8880264,49.4460617 L60.0056676,49.442317 L60.1229872,49.4370894 L60.2397491,49.4304044 L60.3558563,49.4222728 L60.4715266,49.4126893 L60.5868692,49.4016587 L60.7016443,49.3892168 L60.8158861,49.3753632 L60.9295533,49.3601195 L61.0427693,49.3434679 L61.1556596,49.325411 L61.2678595,49.3060119 L61.3795049,49.2852513 L61.4906533,49.2631314 L61.6013604,49.2396448 L61.711594,49.2148132 L61.8211101,49.1886947 L61.9301928,49.1612248 L62.0387492,49.1324437 L62.146685,49.102374 L62.2542716,49.0709504 L62.3611336,49.038297 L62.4673584,49.0043763 L62.5732273,48.9691183 L62.678422,48.9326323 L62.7829556,48.8949156 L62.8870098,48.855909 L62.9904031,48.8156914 L63.0932227,48.7742234 L63.1955015,48.7315087 L63.2970931,48.6876049 L63.3979834,48.6425279 L63.4983532,48.5961926 L63.5981149,48.5486582 L63.6971503,48.4999709 L63.7955076,48.4501223 L63.8932192,48.3990877 L63.9903245,48.3468624 L64.0866763,48.2935212 L64.1822601,48.2390803 L64.2772605,48.1834288 L64.3715744,48.1266455 L64.4650379,48.0688173 L64.5578869,48.0098076 L64.6499314,47.9497427 L64.74119,47.8886048 L64.8317728,47.8263292 L64.9216022,47.7629694 L65.0105637,47.6986109 L65.0987348,47.633192 L65.1861255,47.5667168 L65.2727394,47.4991734 L65.3585508,47.4305969 L65.4434455,47.3610677 L65.5275578,47.2904827 L65.6108178,47.2189021 L65.6931602,47.1463817 L65.7746516,47.0728614 L65.8553515,46.9982916 L65.9350435,46.9228771 L66.0138551,46.8464826 L66.0918228,46.7690918 L66.1687734,46.6908628 L66.2448169,46.6116892 L66.319946,46.5315769 L66.394153,46.4505358 L66.4673446,46.3686678 L66.5395583,46.2859243 L66.6107836,46.202324 L66.6809901,46.1178941 L66.7503102,46.0324765 L66.8185373,45.946335 L66.885707,45.8594016 L66.9519334,45.7715448 L67.0170956,45.682915 L67.0811986,45.5935054 L67.1441755,45.5034065 L67.2061273,45.4124622 L67.2670519,45.3206874 L67.3268442,45.228227 L67.3855695,45.1349775 L67.4431677,45.0410351 L67.4996929,44.946296 L67.5550621,44.8509141 L67.6092706,44.7548653 L67.6623832,44.6580533 L67.7143581,44.5605304 L67.765161,44.4623734 L67.8147835,44.3635678 L67.8633076,44.2639628 L67.9105773,44.1638687 L67.9566307,44.0631789 L68.0015568,43.9617038 L68.0453133,43.8595278 L68.0878001,43.7568823 L68.1290399,43.6536761 L68.1691136,43.5497147 L68.207929,43.4452245 L68.2454816,43.3401915 L68.2818081,43.2345036 L68.3169001,43.1281703 L68.3507002,43.0213552 L68.3831757,42.9141275 L68.4144187,42.806153 L68.4443898,42.6975882 L68.4730397,42.5885418 L68.5003781,42.4789894 L68.5263813,42.3689569 L68.5511002,42.2582244 L68.5744802,42.147009 L68.5965018,42.0353474 L68.6171866,41.9230934 L68.6365063,41.8103727 L68.6544433,41.6972112 L68.6710123,41.583471 L68.6862037,41.4691628 L68.7000062,41.3543023 L68.7123875,41.2391048 L68.7233503,41.123352 L68.7328995,41.0070391 L68.7410019,40.890295 L68.7476576,40.7731058 L68.7528494,40.6553699 L68.7565805,40.5370872 L68.7588232,40.4183693 L68.7595765,40.2991381 L68.7588232,40.1799069 L68.7565805,40.0611889 L68.7528494,39.9429062 L68.7476576,39.8251703 L68.7410017,39.7079772 L68.7328995,39.5912326 L68.7233508,39.4749285 L68.7123875,39.359171 L68.7000062,39.2439736 L68.6862037,39.1291131 L68.6710123,39.0148049 L68.6544433,38.9010647 L68.6365047,38.7878936 L68.6171866,38.6751783 L68.5965038,38.5629388 L68.5744779,38.4512551 L68.5511002,38.3400471 L68.5263813,38.229318 L68.5003781,38.1192819 L68.4730434,38.0097472 L68.4443858,37.9006725 L68.4144143,37.7921028 L68.3831801,37.6841594 L68.3506996,37.5769197 L68.3168939,37.4700836 L68.2818135,37.363785 L68.2454874,37.258102 L68.2079285,37.1530512 L68.1691057,37.0485411 L68.1290316,36.9445748 L68.0877996,36.8413882 L68.0453215,36.738764 L68.0015655,36.6365926 L67.95663,36.5350963 L67.9105765,36.4344064 L67.8632958,36.3342889 L67.814783,36.2347029 L67.7651727,36.1359252 L67.7143576,36.0377445 L67.6623693,35.9401964 L67.6092701,35.8434054 L67.5550616,35.74736 L67.4996924,35.6519745 L67.4431833,35.5572655 L67.3855692,35.4632971 L67.3268439,35.3700476 L67.2670516,35.2775873 L67.206127,35.1858125 L67.1441752,35.0948682 L67.0811784,35.0047409 L67.0170954,34.9153555 L66.9519332,34.8267294 L66.8857067,34.7388691 L66.8185371,34.6519392 L66.75031,34.565794 L66.681014,34.4804097 L66.6107587,34.3959213 L66.5395581,34.3123464 L66.4673706,34.2296364 L66.394126,34.1477092 L66.3199184,34.0666637 L66.2448169,33.9865808 L66.1688021,33.9074373 L66.0918522,33.8292127 L66.0138549,33.7517923 L65.9350432,33.6753978 L65.8553193,33.5999532 L65.7746187,33.5253792 L65.6931929,33.4519181 L65.6108512,33.3794021 L65.5275229,33.3077629 L65.4434452,33.2372033 L65.3585505,33.1676778 L65.2727026,33.0990684 L65.1861625,33.0315828 L65.0987726,32.9651118 L65.010525,32.8996361 L64.921602,32.8353021 L64.8318125,32.771974 L64.7411898,32.7096711 L64.6498899,32.6485055 L64.5578447,32.5884367 L64.46508,32.5294806 L64.3715741,32.4716297 L64.2773039,32.4148689 L64.1823042,32.3592247 L64.0866312,32.3047294 L63.9902787,32.251388 L63.8932186,32.1991835 L63.7955536,32.1481769 L63.6971498,32.0983045 L63.5980666,32.0495937 L63.4983525,32.0020784 L63.3979826,31.9557468 L63.2970433,31.9106443 L63.195501,31.8667618 L63.0932723,31.8240681 L62.9904533,31.7826041 L62.8870092,31.7423668 L62.7829551,31.7033602 L62.6783698,31.665625 L62.5731746,31.6291353 L62.4674103,31.5939123 L62.3611331,31.5599787 L62.2542179,31.5273054 L62.1467378,31.4959129 L62.0387489,31.4658319 L61.9302464,31.4370616 L61.8211645,31.409599 L61.7114851,31.3834382 L61.6013603,31.3586274 L61.4907081,31.335156 L61.3795049,31.3130252 L61.2678044,31.2922543 L61.1556042,31.2728517 L61.0428246,31.2548124 L60.9296089,31.2381645 L60.8158863,31.2229133 L60.701589,31.2090529 L60.5868692,31.1966135 L60.4716379,31.1855971 L60.3558565,31.176008 L60.2396382,31.1678651 L60.1229319,31.1611796 L60.0057231,31.1559569 L59.8880268,31.1522141 L59.7698523,31.1499576 L59.6511633,31.1492044 L59.5324744,31.1499576 L59.4142998,31.1522141 L59.2966035,31.1559569 L59.1793948,31.1611796 L59.0626884,31.1678651 L58.9464701,31.176008 L58.8306994,31.1855962 L58.715466,31.1966135 L58.6007257,31.2090544 L58.4864403,31.2229133 L58.3727178,31.2381645 L58.259502,31.2548124 L58.1467224,31.2728517 L58.0345222,31.2922544 L57.9228217,31.3130252 L57.8116186,31.3351561 L57.7009909,31.3586223 L57.5908501,31.3834381 L57.4811366,31.4096056 L57.3721088,31.4370545 L57.2635863,31.4658319 L57.1555591,31.4959214 L57.0481084,31.5273051 L56.9411933,31.5599784 L56.8349161,31.593912 L56.7291876,31.629123 L56.6239649,31.6656247 L56.5193342,31.7033739 L56.4153169,31.7423668 L56.3118729,31.7826041 L56.2090538,31.8240681 L56.1068678,31.8667442 L56.0052911,31.9106446 L55.9042999,31.9557671 L55.8039734,32.0020789 L55.7042593,32.0495942 L55.6051761,32.0983049 L55.5067723,32.1481773 L55.4091073,32.199184 L55.3120472,32.2513885 L55.2156947,32.3047299 L55.1200217,32.3592252 L55.0250744,32.4148385 L54.9308134,32.4715978 L54.837202,32.5295139 L54.7444283,32.5884712 L54.6524362,32.6485055 L54.5611364,32.709671 L54.4705136,32.771974 L54.3807242,32.8353021 L54.2918012,32.8996361 L54.2035823,32.9650904 L54.116139,33.0316048 L54.0295911,33.0990912 L53.9438044,33.1676545 L53.858881,33.2372032 L53.7748327,33.3077381 L53.6915088,33.3793767 L53.6091084,33.4519446 L53.5276785,33.5254063 L53.4470368,33.5999257 L53.3672873,33.675398 L53.2884722,33.7517926 L53.2105085,33.829183 L53.1334992,33.9074679 L53.0574803,33.9866121 L52.982408,34.0666639 L52.9082301,34.1476769 L52.8349896,34.2296034 L52.762773,34.3123466 L52.6915428,34.3959563 L52.6212539,34.4804809 L52.552041,34.5657582 L52.4838217,34.6519027 L52.4165622,34.7389442 L52.3503886,34.8267296 L52.2852871,34.9152781 L52.2211802,35.0047017 L52.1581278,35.0949085 L52.0961721,35.1858533 L52.0352746,35.2775875 L51.9754823,35.3700478 L51.9167569,35.4632973 L51.8591429,35.5572657 L51.8026599,35.6519309 L51.7472689,35.7473602 L51.6930314,35.8434507 L51.6399571,35.9401966 L51.5879934,36.0376987 L51.5371578,36.1359254 L51.4875202,36.2347504 L51.4390537,36.3342414 L51.391754,36.4344067 L51.3456747,36.5351452 L51.3007609,36.6365926 L51.2570261,36.738714 L51.2145312,36.8413879 L51.1732753,36.9446255 L51.1332207,37.048541 L51.0943979,37.1530511 L51.056839,37.2581019 L51.0205129,37.3637849 L50.9854497,37.4700309 L50.9516477,37.5768665 L50.919119,37.6842658 L50.8878931,37.7921564 L50.8579549,37.9006184 L50.8292974,38.0096931 L50.8019526,38.1192818 L50.7759329,38.2293728 L50.7512262,38.340047 L50.7278485,38.4512551 L50.7058335,38.5628834 L50.6851543,38.6751227 L50.6658266,38.7878936 L50.6478793,38.9011202 L50.6313067,39.0148606 L50.6161227,39.1291131 L50.6023269,39.243918 L50.5899432,39.359171 L50.5789763,39.4749288 L50.5694312,39.5912326 L50.5613254,39.7079775 L50.5546731,39.82517 L50.5494753,39.9429617 L50.545746,40.0611889 L50.5435033,40.1799068 L50.54275,40.299138 L50.5435033,40.4183692 L50.545746,40.5370872 L50.5494753,40.6553143 L50.5546731,40.7731061 L50.5613252,40.8902947 L50.5694312,41.0070391 L50.5789768,41.1233517 L50.5899432,41.2391048 L50.6023269,41.3543579 L50.6161228,41.4691627 L50.6313067,41.5834152 L50.6478793,41.6971556 L50.6658251,41.8103727 L50.6851543,41.9231487 L50.7058355,42.0354024 L50.7278462,42.147009 L50.7512262,42.2582244 L50.7759329,42.3689023 L50.8019527,42.4789896 L50.8293011,42.5885962 L50.857951,42.6976422 L50.887889,42.8060994 L50.9191239,42.914021 L50.951648,43.0214083 L50.9854444,43.1282229 L51.020519,43.2345036 L51.0568456,43.3401915 L51.0943982,43.4452244 L51.1332136,43.5497147 L51.1732678,43.6536254 L51.2145315,43.7568825 L51.2570354,43.8595777 L51.3007707,43.9617041 L51.3456752,44.0631301 L51.3917545,44.1638687 L51.4390432,44.2640105 L51.487521,44.3635205 L51.537171,44.4623734 L51.5879944,44.5605767 L51.6399447,44.6580535 L51.6930324,44.7548205 L51.7472699,44.8509144 L51.8026611,44.94634 L51.8591599,45.0410354 L51.9167581,45.1349778 L51.9754835,45.2282273 L52.0352758,45.3206876 L52.0961733,45.4124218 L52.158129,45.5033666 L52.2211617,45.593545 L52.2852883,45.6829926 L52.3503898,45.7715448 L52.4165634,45.8593267 L52.483823,45.9463719 L52.5520423,46.032513 L52.6212791,46.1178235 L52.6915192,46.2022894 L52.7627742,46.2859246 L52.8350169,46.3687013 L52.9082043,46.4505686 L52.9823815,46.5315771 L53.0574813,46.6116583 L53.1335292,46.6908327 L53.2105392,46.7691219 L53.2884732,46.846483 L53.3672883,46.9228776 L53.4470061,46.9983197 L53.5276471,47.072835 L53.6091428,47.146356 L53.691544,47.2189281 L53.7747996,47.2905078 L53.8588822,47.3610682 L53.9438056,47.4306206 L54.0295558,47.4991509 L54.1161778,47.566695 L54.2036218,47.6332135 L54.2917642,47.6986111 L54.3807257,47.7629696 L54.4705551,47.8263295 L54.5611379,47.888605 L54.6523965,47.9497429 L54.7443881,48.0097733 L54.8372464,48.0687842 L54.9308154,48.1266775 L55.02512,48.1834596 L55.1200681,48.2390805 L55.2156518,48.2935214 L55.3120036,48.3468626 L55.409109,48.3990879 L55.5068206,48.4501225 L55.6051779,48.4999711 L55.7042132,48.5486584 L55.8039749,48.5961928 L55.9043016,48.6425083 L56.0052436,48.6876051 L56.1068692,48.7315265 L56.2091052,48.7742234 L56.3119248,48.8156913 L56.4153181,48.855909 L56.5193355,48.8949019 L56.6239145,48.9326325 L56.7291367,48.9691305 L56.8349695,49.0043765 L56.9411943,49.0382972 L57.0480563,49.0709507 L57.1556135,49.1023654 L57.2635873,49.1324437 L57.3721636,49.1612319 L57.4811919,49.1886881 L57.5907424,49.214813 L57.7009919,49.2396497 L57.8116746,49.2631311 L57.922823,49.285251 L58.0344684,49.3060116 L58.1466683,49.3254106 L58.2595586,49.3434676 L58.3727746,49.3601191 L58.4864418,49.3753629 L58.6006716,49.3892151 L58.7154672,49.4016584 L58.830812,49.4126899 L58.9464716,49.4222725 L59.0625788,49.4304041 L59.1793407,49.4370891 L59.2966603,49.4423167 L59.4143015,49.4460614 L59.5324759,49.4483143 L59.651165,49.449071 L59.6511629,49.4490713 Z"></path>
                    <path d="M59.1308797,81.9999957 L58.6765681,81.9981744 L58.2235387,81.9927283 L57.7721194,81.9836915 L57.3223504,81.971075 L56.8742352,81.9549245 L56.4277773,81.9352505 L55.9829941,81.9120989 L55.539835,81.8854777 L55.0983558,81.8554238 L54.6586142,81.821964 L54.2205072,81.785137 L53.7841027,81.7449462 L53.349455,81.7014554 L52.9164088,81.6546605 L52.4851279,81.6046004 L52.0555654,81.5513173 L51.6276829,81.4948164 L51.2015815,81.4351469 L50.7771652,81.3723301 L50.3544795,81.306384 L49.9336011,81.2373661 L49.5144148,81.1652837 L49.0969382,81.0901595 L48.6812706,81.0120374 L48.2673701,80.9309555 L47.8551793,80.8469157 L47.4448185,80.7599752 L47.0361794,80.6701496 L46.6293285,80.5774625 L46.2242569,80.481962 L45.8209752,80.3836598 L45.4194904,80.2826072 L45.0197535,80.1788033 L44.621857,80.0723088 L44.2257696,79.963149 L43.8314372,79.8513353 L43.438919,79.7369063 L43.0482099,79.6198991 L42.6593203,79.5003388 L42.2722379,79.3782597 L41.8869856,79.2536895 L41.5035109,79.1266517 L41.1219132,78.9971898 L40.7421316,78.8653447 L40.3640823,78.731084 L39.9879711,78.5945191 L39.6136462,78.4556438 L39.2411095,78.3144595 L38.8705057,78.1710691 L38.5016847,78.0254509 L38.1346623,77.8776215 L37.7694804,77.7276362 L37.4061458,77.5755211 L37.0447006,77.421332 L36.6851045,77.2650863 L36.3272599,77.1067694 L35.9712558,76.9464295 L35.6171932,76.7841602 L35.2649467,76.6199426 L34.91449,76.4537779 L34.5658895,76.2857292 L34.2191469,76.1158285 L33.8742778,75.9441168 L33.5312213,75.770597 L33.1900261,75.5953101 L32.8506819,75.4182984 L32.5131327,75.2395458 L32.1774833,75.0591415 L31.8436517,74.8770812 L31.511657,74.6933881 L31.1815481,74.508134 L30.8532482,74.3213013 L30.526815,74.1329455 L30.2022396,73.9431032 L29.8794855,73.7517758 L29.5585736,73.5590073 L29.2394934,73.3648194 L28.9222432,73.1692386 L28.6068753,72.9723247 L28.2933373,72.774088 L27.981584,72.5745138 L27.6717357,72.373709 L27.3637208,72.1716763 L27.057501,71.9683983 L26.7531409,71.7639568 L26.4506526,71.5583854 L26.1499419,71.3516637 L25.8510647,71.1438325 L25.5540349,70.9349563 L25.2588438,70.7250379 L24.9654705,70.5141138 L24.6739393,70.3022061 L24.3842503,70.0893702 L24.0963408,69.8755696 L23.8102629,69.6608788 L23.5260395,69.4453373 L23.243625,69.2289569 L22.9630319,69.0117549 L22.6842547,68.7937769 L22.4073163,68.5750475 L22.1321834,68.3555989 L21.8588403,68.1354152 L21.5873517,67.9146 L21.3176494,67.6931168 L21.0497631,67.4710198 L20.7836806,67.2483292 L20.5194316,67.0250935 L20.2570126,66.801352 L19.9963433,66.5770595 L19.737497,66.3522905 L19.4805156,66.1271371 L19.2252734,65.9015115 L18.9718245,65.6754723 L18.7172523,65.4464396 L18.2224108,64.9954282 L17.7317509,64.5405492 L17.2482643,64.0847376 L16.7719685,63.6282551 L16.3028008,63.1712611 L15.8407994,62.7140098 L15.3859539,62.2567366 L14.9382243,61.7996139 L14.4976104,61.3428742 L14.0641245,60.8867425 L13.6377527,60.4314528 L13.2184618,59.9771731 L12.8062622,59.5241475 L12.4011488,59.072588 L12.0031128,58.6227137 L11.612149,58.1747426 L11.2282155,57.7288529 L10.8513454,57.2852829 L10.4815336,56.8442722 L10.1187486,56.4059935 L9.76300607,55.9706922 L9.41427994,55.5385568 L9.07256668,55.1097994 L8.73787325,54.6846465 L8.41018747,54.26331 L8.08950408,53.8459975 L7.77582309,53.4329297 L7.4691288,53.0243083 L7.16941772,52.6203424 L6.87669508,52.2212584 L6.59094519,51.8272552 L6.31217327,51.4385535 L6.04038282,51.0553799 L5.77554244,50.6779112 L5.51766433,50.306371 L5.2667485,49.9409845 L5.02278796,49.5819519 L4.78577924,49.2294925 L4.55572407,48.8838166 L4.33261373,48.5451393 L4.11643252,48.2136388 L3.9072101,47.8895782 L3.70492379,47.5731491 L3.50956835,47.2645457 L3.32114204,46.9639903 L3.13964836,46.671689 L2.96311601,46.3846643 L2.63687466,45.846752 L2.33624424,45.3418281 L2.06330242,44.8750306 L1.81803875,44.4480433 L1.60045497,44.0625734 L1.4105441,43.7203179 L1.24829584,43.4229548 L1.11131607,43.1677216 L0.929712477,42.8215298 L-3.55271368e-14,40.9987338 L0.930846398,39.1764493 L1.11271341,38.8302751 L1.2498624,38.5750945 L1.41230656,38.2777898 L1.60245642,37.935565 L1.82031409,37.5501243 L2.06586037,37.1231984 L2.33911445,36.6564462 L2.64008331,36.1515663 L2.96668228,35.6136992 L3.14341175,35.3266833 L3.32509559,35.0344142 L3.51370856,34.7338924 L3.70925938,34.4253197 L3.91175503,34.1088993 L4.12119377,33.7848533 L4.33756687,33.4534055 L4.56089527,33.1147369 L4.79116502,32.7690918 L5.02838482,32.4166601 L5.27256691,32.0576523 L5.52369732,31.692298 L5.78179349,31.3207885 L6.04685717,30.9433417 L6.31887963,30.5601842 L6.5978731,30.1715132 L6.88384978,29.777529 L7.17679396,29.3784816 L7.47671438,28.9745551 L7.78363371,28.5659571 L8.09755021,28.1528996 L8.41845864,27.7356177 L8.74635376,27.3143222 L9.08126699,26.8891985 L9.42319309,26.4604747 L9.7721303,26.0283701 L10.1280891,25.5930906 L10.49108,25.1548455 L10.8611116,24.7138451 L11.2381823,24.2703175 L11.6222955,23.8244687 L12.0134652,23.3765166 L12.4116931,22.9266686 L12.8170071,22.4751267 L13.2293846,22.0221405 L13.648843,21.5679017 L14.0753962,21.1126295 L14.5090531,20.6565257 L14.9498239,20.1998254 L15.3977071,19.742732 L15.8527288,19.2854661 L16.3148575,18.8282703 L16.7841456,18.3713143 L17.2605897,17.9148435 L17.7441983,17.4590626 L18.2349786,17.0042099 L18.7299335,16.553219 L18.984586,16.3241746 L19.2380663,16.0981748 L19.4933172,15.8725902 L19.7503702,15.6474236 L20.0092688,15.4226663 L20.2699643,15.1984001 L20.5324513,14.974644 L20.7967544,14.751417 L21.0628369,14.5287704 L21.330765,14.3066762 L21.6005004,14.0852091 L21.87201,13.8644085 L22.1453635,13.644254 L22.4205313,13.4247997 L22.6975082,13.2060776 L22.9763028,12.9881083 L23.2569273,12.7709136 L23.5393452,12.5545507 L23.8235949,12.3390136 L24.1096657,12.1243492 L24.3975561,11.9105749 L24.6872852,11.69772 L24.9788041,11.4858385 L25.272174,11.2749189 L25.5673947,11.0649931 L25.8644019,10.8561418 L26.1632372,10.6483442 L26.4639479,10.4416181 L26.7664484,10.2360424 L27.0707963,10.0316052 L27.37699,9.82834623 L27.6849856,9.62631502 L27.9948165,9.42552038 L28.3064983,9.22598133 L28.620031,9.02773147 L28.9353885,8.83081612 L29.2525777,8.63525721 L29.571616,8.44107811 L29.892486,8.24831392 L30.2151843,8.05699971 L30.5397335,7.86714571 L30.8661476,7.67878408 L31.1943619,7.49197475 L31.5244324,7.30671334 L31.8563573,7.12303784 L32.1901087,6.94098626 L32.5257041,6.76058199 L32.8631503,6.58184987 L33.2024597,6.40481768 L33.543585,6.2295395 L33.8865351,6.05603287 L34.2313431,5.88431387 L34.5780125,5.71441173 L34.9265014,5.54638054 L35.2768307,5.38022906 L35.6290232,5.21598945 L35.9830386,5.05370263 L36.3388997,4.89339054 L36.6965838,4.73509264 L37.0561119,4.578825 L37.4174856,4.42462271 L37.7806962,4.27251646 L38.1457421,4.12253987 L38.5126023,3.97472655 L38.8813046,3.8290964 L39.2518404,3.68568331 L39.6242149,3.54451551 L39.9983984,3.40563463 L40.374398,3.26906379 L40.7522432,3.13482418 L41.1319149,3.00295423 L41.5133957,2.87348888 L41.8966855,2.74645488 L42.2817878,2.62188337 L42.6687062,2.49979947 L43.0574405,2.38023595 L43.4479839,2.26322392 L43.8403189,2.14879877 L44.2344455,2.03698606 L44.6303846,1.92781154 L45.0281188,1.82130983 L45.427629,1.71751485 L45.8289359,1.61644794 L46.2320431,1.51814316 L46.6369036,1.42263865 L47.0435382,1.32995298 L47.4519557,1.24011992 L47.8621404,1.15316723 L48.2740939,1.06912986 L48.6877903,0.98803527 L49.1032468,0.909911244 L49.520467,0.834786282 L49.939416,0.762696488 L50.3601025,0.693664956 L50.7825388,0.627720773 L51.2067056,0.564897265 L51.6325907,0.50522235 L52.0601836,0.448725409 L52.4894984,0.395430705 L52.9205333,0.345371125 L53.3532743,0.298573418 L53.7877074,0.255070911 L54.2238274,0.214886551 L54.6616449,0.178051472 L55.1011301,0.14459257 L55.5422987,0.114537616 L55.9851438,0.0879154043 L56.4296427,0.0647550231 L56.8758005,0.0450819053 L57.3236104,0.028923969 L57.7730707,0.0163091174 L58.2241846,0.00726557547 L58.6769105,0.00182153896 L59.1308907,0 L59.6063875,0.00181285661 L60.0797054,0.00722238298 L60.5512387,0.0162087588 L61.0209612,0.0287442268 L61.4888555,0.0448011615 L61.9549285,0.0643517909 L62.4191716,0.0873686356 L62.8816073,0.113826847 L63.3421974,0.143698069 L63.8009435,0.176953652 L64.2578545,0.21356641 L64.7129197,0.253510324 L65.1661254,0.296754408 L65.6174888,0.343275858 L66.0669926,0.393042811 L66.5146281,0.446028956 L66.96039,0.502202428 L67.4042853,0.561538819 L67.8463104,0.624009186 L68.2864533,0.689586196 L68.7247034,0.758237986 L69.1610694,0.829936051 L69.5955584,0.90465686 L70.0281528,0.982367524 L70.4588318,1.06303837 L70.8876215,1.14664061 L71.3145079,1.23315041 L71.7394876,1.32253284 L72.1625449,1.41476071 L72.5836763,1.50979879 L73.0029236,1.60763029 L73.420238,1.7082204 L73.835616,1.81153302 L74.2490769,1.91754668 L74.6606065,2.02622804 L75.0702155,2.13755049 L75.4778741,2.25148 L75.8836156,2.36799271 L76.2874154,2.48705839 L76.6892701,2.60864268 L77.0891657,2.7327127 L77.4871319,2.85924651 L77.88316,2.98821562 L78.2772465,3.11958904 L78.66936,3.25332964 L79.0595143,3.38940497 L79.447748,3.52780291 L79.8340314,3.66848909 L80.2183347,3.81141953 L80.6006668,3.95656588 L80.9810607,4.10390853 L81.3594973,4.25341592 L81.7359888,4.40506028 L82.1105195,4.55881238 L82.483079,4.71463274 L82.8536671,4.87249214 L83.2222962,5.03236427 L83.5889609,5.19422135 L83.9536928,5.35804293 L84.316429,5.52378222 L84.6772113,5.69141145 L85.0360276,5.86091017 L85.39289,6.03224183 L85.7477969,6.20538888 L86.1007046,6.38029141 L86.4517003,6.55696256 L86.8007073,6.73534534 L87.1477483,6.91540466 L87.4928441,7.09713613 L87.8359739,7.28049006 L88.1771254,7.46543722 L88.5163214,7.65194983 L88.8535722,7.84001327 L89.1888937,8.02960125 L89.5222037,8.22064943 L89.8535582,8.41313883 L90.1830076,8.60708406 L90.5104701,8.80240764 L90.8359666,8.99908474 L91.159558,9.19712557 L91.4811765,9.39646877 L91.800801,9.5970573 L92.118496,9.79890142 L92.4342896,10.0019953 L92.7481259,10.2062804 L93.0599629,10.4116924 L93.3699142,10.6182665 L93.6779168,10.825953 L93.98395,11.0346889 L94.2880537,11.244483 L94.590235,11.4553018 L94.8904659,11.6671058 L95.1887901,11.8798862 L95.4851657,12.0935991 L95.7795596,12.3081758 L96.0720868,12.5236676 L96.3626882,12.7400203 L96.6513409,12.957174 L96.9380625,13.1751156 L97.2228651,13.3938215 L97.5057593,13.613273 L97.7867083,13.8334144 L98.0657524,14.0542369 L98.3429403,14.2757624 L98.6181743,14.4978917 L98.8914511,14.7205734 L99.1628368,14.943834 L99.4323158,15.1676354 L99.6999369,15.3919849 L99.9656408,15.6168241 L100.229394,15.8420725 L100.491264,16.0677639 L100.751232,16.2938542 L101.009288,16.5203042 L101.265507,16.7471444 L101.519832,16.9743164 L101.772181,17.2017033 L102.025618,17.4320471 L102.518028,17.885406 L103.005848,18.342191 L103.486142,18.7994876 L103.958917,19.2570517 L104.424224,19.7147108 L104.882018,20.172196 L105.332371,20.6293216 L105.77529,21.0858976 L106.210738,21.5416375 L106.638762,21.9963572 L107.05937,22.449833 L107.472609,22.9018837 L107.878462,23.3522782 L108.276924,23.8007639 L108.668068,24.2471929 L109.051837,24.6912965 L109.428254,25.1328348 L109.797409,25.5716967 L110.159228,26.0075901 L110.513742,26.4402881 L110.861003,26.8696463 L111.200984,27.2954044 L111.533694,27.7173401 L111.859157,28.1352534 L112.177385,28.5489336 L112.488424,28.9582084 L112.792204,29.3627882 L113.088785,29.76247 L113.378214,30.1571382 L113.660447,30.5464962 L113.935498,30.9303349 L114.203384,31.3084482 L114.464104,31.6806052 L114.717705,32.0466392 L114.964165,32.406315 L115.203522,32.7594395 L115.435742,33.1057658 L115.660867,33.445095 L115.878919,33.777265 L116.089831,34.1019438 L116.2937,34.4190234 L116.490533,34.7283328 L116.680259,35.029524 L116.862928,35.3224349 L117.040658,35.6102766 L117.368643,36.1493144 L117.67075,36.6555348 L117.944813,37.1235908 L118.190944,37.5518512 L118.409145,37.9385752 L118.59948,38.2820279 L118.762068,38.5806538 L118.896874,38.8326217 L119.00393,39.0361614 L119.084505,39.1919393 L120,40.9973268 L119.086838,42.8038397 L119.00645,42.959739 L118.899639,43.1634132 L118.765171,43.4154687 L118.60301,43.7141444 L118.413148,44.057692 L118.195469,44.4445038 L117.949927,44.8728534 L117.67649,45.3409971 L117.375083,45.8472861 L117.047801,46.3864453 L116.870443,46.6743367 L116.688166,46.9672855 L116.49881,47.2685571 L116.302392,47.5778811 L116.098937,47.8950104 L115.888419,48.2197565 L115.670795,48.5519704 L115.446074,48.8913727 L115.214299,49.2377209 L114.975387,49.5908892 L114.729347,49.9506395 L114.476188,50.3167276 L114.215888,50.6889679 L113.948431,51.0671441 L113.673841,51.4510091 L113.392072,51.8404022 L113.103095,52.2351215 L112.806932,52.6349056 L112.503601,53.0395206 L112.193048,53.4488143 L111.875238,53.8625881 L111.550212,54.2805584 L111.217945,54.7025526 L110.878387,55.1283823 L110.531567,55.5577858 L110.17747,55.9905599 L109.816082,56.4264912 L109.447378,56.8653853 L109.071349,57.3070171 L108.687966,57.7511938 L108.297238,58.1976623 L107.899179,58.6461947 L107.493722,59.0966419 L107.08086,59.5487554 L106.66061,60.0023058 L106.232919,60.4571087 L105.797818,60.9128998 L105.355267,61.3695022 L104.905245,61.8266964 L104.447734,62.2842664 L103.982767,62.7419445 L103.510275,63.1995904 L103.030232,63.6569587 L102.542691,64.1137876 L102.05055,64.5671756 L101.797204,64.7975838 L101.544966,65.0249882 L101.29081,65.2521486 L101.034651,65.4790618 L100.776715,65.7055162 L100.516857,65.9316358 L100.255026,66.1573973 L99.9914135,66.3826238 L99.725809,66.6074908 L99.4582455,66.8318812 L99.1888799,67.0556841 L98.9175587,67.2789812 L98.644329,67.5017082 L98.369149,67.7238667 L98.0920762,67.9453733 L97.8130985,68.1662235 L97.5321477,68.3864292 L97.2493477,68.6058646 L96.9645905,68.8246027 L96.6778759,69.0425867 L96.3892476,69.2597711 L96.0987265,69.4761004 L95.806255,69.6916082 L95.5118001,69.9062625 L95.2154367,70.1199929 L94.9171753,70.3327557 L94.6169479,70.5445875 L94.3147701,70.7554223 L94.0106542,70.9652472 L93.7045844,71.1740167 L93.396573,71.3817178 L93.0866061,71.588305 L92.7747358,71.793739 L92.4609083,71.998011 L92.1450694,72.2011399 L91.8273011,72.4030103 L91.5076521,72.6036062 L91.1859604,72.8029742 L90.8623341,73.0010165 L90.5367766,73.1977068 L90.2092269,73.3930581 L89.8796797,73.5870253 L89.548259,73.7795161 L89.2148617,73.9705745 L88.8794652,74.160164 L88.5421272,74.3482333 L88.2028004,74.5347722 L87.8615407,74.7197208 L87.5182957,74.9030894 L87.1730848,75.0848208 L86.825906,75.2649021 L86.4767176,75.4433053 L86.1256399,75.6199531 L85.772542,75.7948863 L85.4174886,75.9680246 L85.0605145,76.139346 L84.7014994,76.3088652 L84.3405077,76.4765149 L83.9775622,76.6422615 L83.6126977,76.8060582 L83.2458847,76.9679021 L82.8769887,77.1278137 L82.5061284,77.2856907 L82.1334172,77.4414804 L81.7587173,77.5952134 L81.3819834,77.7468724 L81.0032886,77.8963857 L80.6226382,78.0437371 L80.2400392,78.1888793 L79.855523,78.3317925 L79.4689396,78.4724917 L79.0804582,78.6108723 L78.6900491,78.746945 L78.2975781,78.8807044 L77.9032456,79.0120505 L77.5069489,79.1410136 L77.1086547,79.2675493 L76.7084328,79.3916189 L76.3062537,79.5131963 L75.9021346,79.632253 L75.4960739,79.748757 L75.0880489,79.8626877 L74.6780771,79.9740046 L74.266209,80.0826709 L73.852401,80.1886751 L73.4366078,80.2919928 L73.0189271,80.3925645 L72.5993152,80.4903894 L72.1777634,80.5854224 L71.7542769,80.6776481 L71.3288785,80.7670172 L70.90161,80.85351 L70.472372,80.9371118 L70.0412604,81.0177666 L69.6082421,81.0954714 L69.1732629,81.1701874 L68.7364346,81.2418745 L68.2977484,81.3105098 L67.857124,81.3760848 L67.4145964,81.4385461 L66.9702249,81.4978744 L66.523924,81.5540472 L66.0757983,81.6070182 L65.6257869,81.6567829 L65.1738547,81.7032988 L64.7201467,81.746529 L64.2645266,81.7864762 L63.807047,81.8230785 L63.3477548,81.8563332 L62.8865577,81.8862009 L62.4235253,81.912656 L61.9586856,81.9356626 L61.4920195,81.9552128 L61.0234989,81.9712611 L60.5531658,81.9837973 L60.0809976,81.9927763 L59.6070481,81.9981874 L59.1308919,82 L59.1308797,81.9999957 Z M59.1315775,74.545455 L59.5504131,74.5438606 L59.9678566,74.5390946 L60.3834388,74.5311916 L60.7972154,74.520163 L61.2092073,74.5060509 L61.6193902,74.4888671 L62.0278007,74.4686533 L62.4343778,74.4454236 L62.8391912,74.4192074 L63.2422687,74.3900231 L63.6435373,74.3579183 L64.0430474,74.3228905 L64.4408496,74.2849871 L64.8368062,74.2442326 L65.2310654,74.2006333 L65.6235888,74.1542348 L66.0143398,74.1050538 L66.4034004,74.0531101 L66.7906851,73.9984463 L67.1762532,73.9410649 L67.5601605,73.8810001 L67.9423059,73.8182871 L68.3227034,73.7529466 L68.7014418,73.6849821 L69.078488,73.6144423 L69.453788,73.541346 L69.8274604,73.4657025 L70.1994058,73.3875629 L70.5696642,73.3069292 L70.9382374,73.2238394 L71.3051517,73.1383 L71.6703999,73.0503534 L72.0339368,72.9600204 L72.3958618,72.8673071 L72.7561295,72.7722549 L73.1146946,72.6748956 L73.4716093,72.5752362 L73.8268895,72.4733019 L74.1805352,72.3691155 L74.5325235,72.2627107 L74.8828703,72.1541026 L75.2315458,72.0433304 L75.5786443,71.9303778 L75.9241082,71.815309 L76.2678573,71.6981548 L76.6100695,71.5788804 L76.9506349,71.4575677 L77.2895221,71.3342276 L77.6268776,71.2088428 L77.9625741,71.0814938 L78.2966203,70.952183 L78.6290686,70.8209284 L78.9598805,70.6877565 L79.2891486,70.5526631 L79.6168309,70.415695 L79.9428088,70.2769258 L80.2671521,70.1363268 L80.5900022,69.9938807 L80.9112246,69.8496757 L81.2308125,69.7037295 L81.5487779,69.5560609 L81.8651437,69.4066807 L82.1799743,69.2555859 L82.4931721,69.1028585 L82.8047475,68.9484968 L83.1147685,68.7925069 L83.4231445,68.6349545 L83.729933,68.4758249 L84.035134,68.3151561 L84.3387475,68.1529585 L84.640791,67.9892626 L84.9411929,67.8241211 L85.2400282,67.6575165 L85.5372499,67.4895058 L85.8328945,67.3200816 L86.1269849,67.1492733 L86.4193935,66.9771669 L86.7102234,66.8037144 L86.9995128,66.6289361 L87.2871572,66.4529125 L87.5732037,66.2756362 L87.8577377,66.0970765 L88.1406196,65.917368 L88.4218548,65.7364945 L88.7015704,65.5544269 L88.9796882,65.3712264 L89.2561765,65.1869516 L89.531067,65.001585 L89.8043664,64.8151689 L90.0760644,64.627712 L90.3461679,64.4392554 L90.6146683,64.2498092 L90.8816003,64.0593939 L91.1468995,63.8680665 L91.4105728,63.6758519 L91.6726761,63.4827208 L91.9331971,63.2887303 L92.192101,63.0939125 L92.4493633,62.8983214 L92.7050503,62.7019132 L92.959162,62.5047392 L93.2116113,62.3068723 L93.46248,62.1082745 L93.7117421,61.9090001 L93.959366,61.7090883 L94.2054077,61.5085231 L94.4498463,61.3073485 L94.6927078,61.1055657 L94.9338614,60.9033226 L95.1734188,60.7005079 L95.4114795,60.497113 L95.6477887,60.293357 L95.8825383,60.0890865 L96.1157213,59.8843643 L96.3471477,59.6793586 L96.5770458,59.4738778 L96.8053722,59.2680302 L97.0290582,59.0645972 L97.4804705,58.6487303 L97.9224172,58.2346233 L98.3578412,57.8197664 L98.7867722,57.4043132 L99.2092085,56.9885003 L99.6250994,56.572556 L100.034459,56.156673 L100.437313,55.7410282 L100.833615,55.3258819 L101.223351,54.9114402 L101.60655,54.4978754 L101.983179,54.0854405 L102.353237,53.6743211 L102.716758,53.2647043 L103.073677,52.8568679 L103.424006,52.4509857 L103.767755,52.0472668 L104.104917,51.6459201 L104.435483,51.247168 L104.759448,50.8512208 L105.076801,50.4583022 L105.387523,50.0686343 L105.691648,49.6823824 L105.989168,49.2997832 L106.280032,48.9210911 L106.564287,48.5464565 L106.841937,48.1760974 L107.112932,47.810287 L107.377265,47.44923 L107.634981,47.0930769 L107.886071,46.7420645 L108.130492,46.3964588 L108.368269,46.0564265 L108.599404,45.7221883 L108.823877,45.3939736 L109.041696,45.0719857 L109.252891,44.7563912 L109.457404,44.4475115 L109.655231,44.1455179 L109.846448,43.8505475 L110.030991,43.5628973 L110.208855,43.2827951 L110.380042,43.010431 L110.544614,42.7459381 L110.700412,42.4930406 L110.998356,42.0022175 L111.267465,41.55018 L111.509918,41.1350805 L111.585906,41.0025192 L111.508928,40.868581 L111.265815,40.4533835 L110.99601,40.0012875 L110.697287,39.5103432 L110.541097,39.2573857 L110.376133,38.9928665 L110.204509,38.7204118 L110.026253,38.440295 L109.841274,38.152595 L109.649622,37.8575677 L109.45135,37.5555302 L109.24637,37.2465658 L109.034747,36.9309595 L108.816459,36.6089175 L108.591513,36.2806385 L108.359904,35.9463448 L108.121632,35.6062291 L107.876724,35.2605489 L107.625177,34.9095117 L107.366988,34.5533235 L107.10217,34.1922153 L106.830657,33.8263143 L106.552538,33.4559084 L106.26781,33.0812563 L105.976424,32.7024692 L105.678428,32.3198247 L105.373809,31.9335143 L105.062591,31.5437748 L104.744764,31.1508109 L104.420298,30.7547892 L104.08927,30.3559888 L103.751644,29.95461 L103.407389,29.5507961 L103.056596,29.1448525 L102.699221,28.7369648 L102.335251,28.3273013 L101.96474,27.9161278 L101.587658,27.5036301 L101.204011,27.0900025 L100.813824,26.6754774 L100.417105,26.2602711 L100.013879,25.8446118 L99.6040883,25.4286601 L99.1877805,25.0126324 L98.7649884,24.5967889 L98.3356631,24.1812757 L97.8998571,23.766337 L97.4575563,23.3521744 L97.0058457,22.9362885 L96.7819451,22.7327912 L96.5534687,22.5269158 L96.3234554,22.3214599 L96.091804,22.1163694 L95.8585023,21.9116429 L95.6236009,21.7073534 L95.3870894,21.503517 L95.148952,21.300144 L94.909255,21.0973117 L94.6679408,20.895016 L94.4249747,20.6932318 L94.1804053,20.4920323 L93.9342153,20.2914218 L93.6864727,20.0914808 L93.4371496,19.8922238 L93.1861518,19.6935969 L92.9335473,19.4956642 L92.6793762,19.2984945 L92.4235828,19.1020644 L92.1661966,18.9064208 L91.907209,18.7115839 L91.6466601,18.5176051 L91.3844818,18.3244696 L91.1206602,18.1321761 L90.8553087,17.9408326 L90.5883505,17.7504232 L90.3197891,17.5609609 L90.0496245,17.372478 L89.7778707,17.1850007 L89.5045137,16.9985509 L89.2295936,16.8131711 L88.9530668,16.6288729 L88.674916,16.445652 L88.3952317,16.2635975 L88.1139512,16.0826992 L87.8310396,15.9029541 L87.5465231,15.7243989 L87.2604696,15.5470992 L86.9728339,15.3710624 L86.6835706,15.1962783 L86.3927408,15.0228038 L86.1003443,14.8506711 L85.8062976,14.6798555 L85.5106966,14.5104211 L85.213529,14.3424045 L84.9147599,14.1757999 L84.6143807,14.0106321 L84.3124245,13.8469333 L84.0088929,13.6847386 L83.7037722,13.5240596 L83.3970413,13.3649139 L83.0887455,13.2073396 L82.7788623,13.0513628 L82.4673584,12.8969807 L82.1542985,12.7442489 L81.8396179,12.5931687 L81.5233586,12.4437739 L81.205489,12.2960848 L80.8860408,12.150125 L80.565012,12.0059336 L80.2423625,11.8635064 L79.9181221,11.7228844 L79.5922855,11.5840876 L79.2648457,11.4471386 L78.9358219,11.3120688 L78.6051826,11.1788929 L78.272935,11.0476327 L77.9390667,10.9183122 L77.603583,10.7909509 L77.2665171,10.6655889 L76.927855,10.5422468 L76.5875669,10.4209405 L76.2456234,10.3016797 L75.9020837,10.1845066 L75.5569407,10.0694488 L75.2101632,9.95651855 L74.8617476,9.8457391 L74.5117061,9.73713682 L74.1600265,9.63073334 L73.8067385,9.52656139 L73.4517933,9.42463575 L73.0952117,9.32498067 L72.7369816,9.22762144 L72.3770959,9.13257868 L72.0155652,9.0398803 L71.6523754,8.94954778 L71.2875459,8.86160861 L70.9210503,8.7760869 L70.5528626,8.69299683 L70.1830246,8.61237071 L69.8115119,8.53423339 L69.4383297,8.45860693 L69.0634536,8.38551647 L68.6868888,8.31498175 L68.3086424,8.24703405 L67.9286933,8.18169281 L67.5470451,8.11898521 L67.163682,8.05893158 L66.7786355,8.00156333 L66.3918724,7.94690313 L66.0033823,7.8949729 L65.6131599,7.84579822 L65.2212139,7.79940379 L64.8275391,7.75581796 L64.4321251,7.7150634 L64.034977,7.67716832 L63.6360688,7.64215361 L63.235409,7.61004836 L62.8329856,7.58087582 L62.428809,7.55466317 L62.0228565,7.53143658 L61.6151368,7.5112222 L61.2056255,7.49404431 L60.7943383,7.47992998 L60.3812596,7.46890612 L59.9663927,7.46099967 L59.5497133,7.45623747 L59.1315929,7.45464336 L58.7364615,7.45622878 L58.3433048,7.46095648 L57.9517636,7.46880576 L57.5618168,7.47975026 L57.173447,7.49376349 L56.7866525,7.5108189 L56.401449,7.53088974 L56.0178173,7.55395233 L55.6357486,7.5799811 L55.2552343,7.60895047 L54.8762796,7.64083325 L54.4988775,7.67560737 L54.1230245,7.71324388 L53.7487188,7.75372218 L53.3759448,7.79701538 L53.0047008,7.84310125 L52.6349727,7.89195246 L52.2667745,7.94354432 L51.900108,7.99785138 L51.5349592,8.0548526 L51.1712984,8.11452663 L50.8091502,8.17684236 L50.4485109,8.24177945 L50.0893684,8.30931378 L49.7317035,8.37942476 L49.3755458,8.45208008 L49.0208796,8.52726365 L48.6676841,8.60495035 L48.3159662,8.68511867 L47.9657101,8.76774232 L47.6169613,8.85279088 L47.2696726,8.94025325 L46.9238371,9.03010342 L46.579474,9.1223136 L46.2365762,9.2168632 L45.8951246,9.31373218 L45.5551314,9.4128916 L45.2166071,9.51431808 L44.8795342,9.61799233 L44.5438952,9.72389621 L44.2097095,9.83199699 L43.8769716,9.94227625 L43.5456747,10.0547105 L43.215838,10.1692717 L42.8874352,10.2859458 L42.5604577,10.4047111 L42.2349246,10.5255344 L41.9108412,10.6483949 L41.5881918,10.7732744 L41.2669676,10.9001519 L40.9471739,11.0290011 L40.6288264,11.1597925 L40.3119233,11.292506 L39.9964437,11.4271247 L39.6823894,11.5636267 L39.3697621,11.7019849 L39.0585827,11.8421677 L38.7488286,11.9841644 L38.4405224,12.1279383 L38.1336345,12.2734858 L37.8281665,12.4207729 L37.5241623,12.5697644 L37.2215763,12.7204557 L36.9204033,12.8728265 L36.6206783,13.0268329 L36.3224186,13.1824487 L36.025579,13.3396737 L35.7301698,13.4984759 L35.4361859,13.6588348 L35.1436586,13.8207094 L34.8525689,13.9840924 L34.5628956,14.148965 L34.2747017,14.3152714 L33.9879365,14.4830234 L33.7025913,14.6521918 L33.4187115,14.8227327 L33.1362797,14.9946315 L32.8552922,15.1678706 L32.5757562,15.3424179 L32.2976873,15.5182442 L32.0210507,15.6953481 L31.745855,15.8736972 L31.4721159,16.0532566 L31.199858,16.2339898 L30.9290566,16.4158923 L30.659691,16.5989495 L30.3918274,16.7830956 L30.1253926,16.9683644 L29.8604109,17.1546972 L29.5969469,17.3420415 L29.3349239,17.5304236 L29.074354,17.7198098 L28.8152774,17.9101447 L28.557675,18.1014268 L28.3015361,18.2936312 L28.0468906,18.4867213 L27.7937051,18.6806899 L27.54202,18.8754858 L27.2918177,19.0711018 L27.0430912,19.2675158 L26.7958702,19.4646825 L26.5501268,19.6626006 L26.3058557,19.8612495 L26.0631024,20.0605634 L25.8218563,20.2605395 L25.5820668,20.4611851 L25.3438021,20.6624197 L25.1070358,20.8642492 L24.871782,21.0666282 L24.638046,21.2695423 L24.4057805,21.4729972 L24.1750154,21.6769403 L23.9457836,21.8813204 L23.7210491,22.0834539 L23.2671631,22.4970231 L22.8223485,22.9092738 L22.3836431,23.3227362 L21.9510313,23.7372131 L21.5245443,24.1524939 L21.104177,24.5683739 L20.6899835,24.9846106 L20.2819533,25.4010315 L19.8801003,25.8174071 L19.4844473,26.23354 L19.0949925,26.6492154 L18.7117655,27.0642199 L18.3347716,27.4783372 L17.9640474,27.8913436 L17.5995719,28.3030638 L17.2413714,28.7132608 L16.8894616,29.1217287 L16.5438529,29.5282482 L16.2045732,29.9326001 L15.8716086,30.3345957 L15.5449799,30.73401 L15.2247013,31.1306252 L14.91079,31.5242234 L14.6032549,31.9145958 L14.3020906,32.3015464 L14.0073339,32.6848224 L13.71899,33.0642322 L13.4370605,33.4395625 L13.1615438,33.8106217 L12.8924661,34.1771571 L12.6298551,34.5389508 L12.3736866,34.8958245 L12.123985,35.2475429 L11.8807624,35.5938882 L11.6440258,35.9346513 L11.4137787,36.2696233 L11.1900438,36.5985703 L10.9728124,36.9213051 L10.762102,37.2375925 L10.5579246,37.5472191 L10.3602787,37.8499787 L10.1691868,38.1456389 L9.98464895,38.4339981 L9.80666518,38.7148501 L9.63524734,38.9879742 L9.47041428,39.2531366 L9.31414737,39.5069199 L9.01532947,39.9990351 L8.74502533,40.4524714 L8.50118866,40.8689741 L8.4250926,41.0012808 L8.50069374,41.1328976 L8.74419373,41.5493433 L9.01414897,42.002746 L9.31258832,42.4948159 L9.4686649,42.7485802 L9.63329508,43.0137206 L9.80449643,43.2868009 L9.98226562,43.5676237 L10.1666028,43.8559741 L10.3574854,44.15163 L10.5548906,44.4543369 L10.7588499,44.763943 L10.9693336,45.08021 L11.1863295,45.4029083 L11.4098375,45.7318421 L11.6398456,46.0667819 L11.8763415,46.4075143 L12.1193233,46.7538274 L12.368793,47.1055312 L12.6247155,47.4623742 L12.8870909,47.8241475 L13.155921,48.1906566 L13.4311795,48.5616647 L13.7128699,48.9369716 L14.0009836,49.3163711 L14.2954961,49.6996281 L14.5964074,50.0865377 L14.9036983,50.4768809 L15.2173636,50.8704456 L15.5373998,51.2670301 L15.8637876,51.6664122 L16.1965115,52.0683742 L16.5355749,52.4727158 L16.8809377,52.8792031 L17.2326033,53.2876184 L17.5905839,53.6977979 L17.9548378,54.1094903 L18.3253492,54.5224792 L18.7021198,54.9365672 L19.0851218,55.3515308 L19.4743673,55.767177 L19.8698214,56.1832909 L20.2714598,56.5996285 L20.6792946,57.0160201 L21.093305,57.4322393 L21.5134716,57.8480872 L21.939765,58.2633183 L22.3722076,58.6777717 L22.8107525,59.0912152 L23.255391,59.5034294 L23.7091287,59.9169766 L23.9338125,60.1191204 L24.1629449,60.3234727 L24.3935984,60.5273632 L24.625829,60.7308312 L24.8595074,60.9337453 L25.094667,61.1360863 L25.3314036,61.3379305 L25.5696125,61.5391665 L25.8093025,61.7397682 L26.0505033,61.9397399 L26.2931921,62.1390393 L26.537409,62.3376735 L26.783074,62.5355624 L27.0302653,62.7327247 L27.2789534,62.9291417 L27.5291069,63.1247386 L27.7807589,63.3195374 L28.0338833,63.5134768 L28.2885114,63.7065742 L28.5445892,63.8987523 L28.8021393,64.0900081 L29.0612141,64.2803517 L29.3217387,64.4697219 L29.5837355,64.6580879 L29.8472082,64.8454512 L30.1121463,65.0317607 L30.3785288,65.2169958 L30.6463924,65.4011361 L30.9157598,65.5841977 L31.1865593,65.7660958 L31.4588033,65.9468201 L31.7325337,66.1263664 L32.0077346,66.304717 L32.2843346,66.4817872 L32.5624314,66.6576165 L32.8419901,66.8321711 L33.1229706,67.0053927 L33.4054042,67.1772783 L33.6892979,67.3478105 L33.9746518,67.5169657 L34.2614676,67.6847221 L34.5497069,67.8510387 L34.8393732,68.0158864 L35.1305223,68.1792768 L35.4230792,68.3411499 L35.7170805,68.5014883 L36.0125455,68.6602949 L36.3094043,68.8174995 L36.6077495,68.9731254 L36.9075251,69.1271333 L37.2087207,69.2794793 L37.5113975,69.4301838 L37.815482,69.5791825 L38.1209795,69.7264521 L38.4279128,69.8719805 L38.7363272,70.0157644 L39.0462087,70.1577851 L39.3574299,70.2979558 L39.6700921,70.4362837 L39.9842738,70.5727965 L40.2998894,70.7074347 L40.6168867,70.84015 L40.9353179,70.9709333 L41.2551779,71.0997665 L41.5765225,71.2266394 L41.8993551,71.351547 L42.2235257,71.4744019 L42.5491792,71.5952198 L42.8763172,71.7140022 L43.204788,71.8306554 L43.5348079,71.9452251 L43.8662723,72.0576789 L44.1991305,72.1679488 L44.5334698,72.2760563 L44.8692622,72.3819595 L45.2065079,72.4856422 L45.5452049,72.5870734 L45.8853516,72.6862345 L46.226955,72.7830971 L46.5700638,72.877656 L46.9146363,72.9698788 L47.2606271,73.0597256 L47.6081303,73.1471913 L47.9570955,73.2322533 L48.3075434,73.3148755 L48.6594602,73.3950478 L49.0128599,73.472731 L49.3677859,73.5479268 L49.7241529,73.6205852 L50.0820603,73.6906981 L50.441461,73.7582453 L50.8023009,73.8231777 L51.1647022,73.8854955 L51.5286507,73.9451776 L51.8940612,74.0021877 L52.2609911,74.0564959 L52.6294859,74.1080984 L52.9994477,74.1569511 L53.3709901,74.2030376 L53.7440642,74.2463413 L54.1186315,74.286817 L54.4948351,74.3244599 L54.8725321,74.359244 L55.2517869,74.391124 L55.6326448,74.4201033 L56.0150135,74.4461331 L56.3989506,74.4691967 L56.784503,74.4892653 L57.1716411,74.5063253 L57.5603598,74.5203351 L57.9506624,74.5312834 L58.3425543,74.5391285 L58.736107,74.5438596 L59.1316047,74.5454452 L59.1315775,74.545455 Z"></path>
                </g>
            </g>
        </g>
    </g>
</svg>