<svg width="172px" height="117px" viewBox="0 0 172 117" version="1.1" xmlns="http://www.w3.org/2000/svg" xmlns:xlink="http://www.w3.org/1999/xlink">
    <defs></defs>
    <g stroke="none" stroke-width="1" fill="none" fill-rule="evenodd" fill-opacity="0.1">
        <g transform="translate(-1148.000000, -246.000000)" fill="#F34E40">
            <g transform="translate(1148.000000, 246.000000)">
                <path d="M85.5000001,81 L85.197643,80.998081 L84.8960042,80.9923566 L84.5950576,80.9828204 L84.2951354,80.969517 L83.9959842,80.9524671 L83.6974656,80.9316552 L83.3999335,80.9071161 L83.1036063,80.8789041 L82.8081486,80.8470232 L82.5136217,80.8114691 L82.2200304,80.7722747 L81.9276203,80.7294628 L81.6365428,80.683116 L81.3463604,80.633172 L81.0572683,80.5796588 L80.7694055,80.5226306 L80.4828747,80.4621187 L80.197722,80.3981718 L79.9135951,80.3307223 L79.6308046,80.2598315 L79.3495082,80.1855862 L79.0694613,80.1079272 L78.7910447,80.0269773 L78.5138309,79.9426541 L78.2379885,79.8549699 L77.9638692,79.7640933 L77.6912164,79.6699482 L77.4199832,79.5725353 L77.1503726,79.4719255 L76.8822955,79.368123 L76.6158804,79.2611633 L76.3511419,79.1511025 L76.0880991,79.0379338 L75.8266176,78.9216443 L75.5669103,78.8022955 L75.3090208,78.679974 L75.0528034,78.5545851 L74.7983269,78.4261985 L74.5456955,78.2948485 L74.2949939,78.1606281 L74.0460396,78.0234306 L73.7988685,77.88329 L73.5536992,77.7403206 L73.3105495,77.5945813 L73.0693154,77.4460011 L72.8300611,77.2946458 L72.5926204,77.1404041 L72.3572423,76.9834303 L72.1240082,76.82381 L71.8928359,76.661496 L71.6636184,76.4964231 L71.4364822,76.3286631 L71.2115865,76.1583614 L70.9888109,75.985439 L70.7681416,75.809883 L70.5496428,75.6317441 L70.3333662,75.4510735 L70.1193453,75.2679021 L69.9075697,75.082234 L69.6980232,74.8940503 L69.4908072,74.703444 L69.2858521,74.5103619 L69.0832303,74.3148544 L68.8830011,74.1169993 L68.685146,73.9167701 L68.4896385,73.7141483 L68.2965564,73.5091932 L68.1059501,73.3019772 L67.9177664,73.0924307 L67.7320983,72.8806551 L67.5489269,72.6666342 L67.3682564,72.4503576 L67.1901174,72.2318588 L67.0145614,72.0111895 L66.8416705,71.7884544 L66.671307,71.5634864 L66.503548,71.3363331 L66.3385614,71.1072448 L66.1761905,70.8760006 L66.0165171,70.6426798 L65.8595963,70.4073723 L65.7054039,70.1700168 L65.5540231,69.9307314 L65.4053964,69.6894219 L65.2596205,69.446202 L65.1166976,69.201097 L64.9766052,68.954018 L64.8393912,68.7050435 L64.705116,68.4542399 L64.5738093,68.2016741 L64.4454474,67.9472651 L64.3200747,67.6910809 L64.1976959,67.4330991 L64.0783244,67.1733129 L63.9620524,66.9118803 L63.8489025,66.6488622 L63.7388284,66.384114 L63.63186,66.1176542 L63.5280847,65.8496567 L63.4274742,65.5800443 L63.3300515,65.308793 L63.2358981,65.036106 L63.1450051,64.7619375 L63.0573778,64.4862456 L62.9730529,64.2090866 L62.8920495,63.9304765 L62.8143992,63.6504457 L62.7401432,63.3690989 L62.6692907,63.0864244 L62.6018458,62.8023652 L62.5378737,62.5170924 L62.4773692,62.2305874 L62.420328,61.9426698 L62.3668505,61.6537195 L62.3169041,61.3636297 L62.2705153,61.0722983 L62.2277129,60.7798717 L62.188532,60.4863907 L62.1529875,60.1919414 L62.1210878,59.8964038 L62.0928685,59.5998946 L62.0683529,59.3025277 L62.0475429,59.0041774 L62.030475,58.7048617 L62.0171772,58.4048787 L62.0076433,58.104003 L62.001919,57.8023569 L62,57.5000012 L62.001919,57.1976454 L62.0076433,56.8959993 L62.0171772,56.5951237 L62.030475,56.2951406 L62.0475426,55.9958306 L62.0683529,55.6974666 L62.0928691,55.4001011 L62.1210878,55.1035986 L62.1529875,54.808061 L62.188532,54.5136116 L62.2277129,54.2201307 L62.2705153,53.9277041 L62.316902,53.6363863 L62.3668505,53.3462745 L62.4203312,53.0573179 L62.477366,52.7694314 L62.5378737,52.4829016 L62.6018458,52.1976379 L62.6692907,51.9135695 L62.7401484,51.6308839 L62.8143936,51.3495776 L62.8920436,51.0695395 L62.9730598,50.7908851 L63.0573778,50.5137571 L63.144997,50.238081 L63.2359064,49.9638625 L63.3300606,49.6911828 L63.4274742,49.419957 L63.5280743,49.1503729 L63.6318488,48.882368 L63.7388284,48.6158803 L63.8489154,48.3511017 L63.9620663,48.088091 L64.0783247,47.8266888 L64.1976962,47.5669025 L64.3200593,47.3089543 L64.4454478,47.0527285 L64.5738271,46.7982943 L64.7051163,46.5457624 L64.8393723,46.2949949 L64.9766055,46.0459759 L65.1166979,45.7989064 L65.2596209,45.553792 L65.4054194,45.3105431 L65.5540234,45.0692702 L65.7054042,44.8299849 L65.8595967,44.5926294 L66.0165174,44.3573218 L66.1761908,44.1240011 L66.3385334,43.8927974 L66.5035484,43.6636602 L66.6713073,43.436516 L66.8416708,43.2115389 L67.0145618,42.9888132 L67.1901178,42.7681345 L67.3682909,42.5496029 L67.5488916,42.3334101 L67.7320983,42.1193385 L67.9178038,41.9075294 L68.1059117,41.6980674 L68.296517,41.4908433 L68.4896385,41.2858464 L68.6851872,41.0831816 L68.8830434,40.8829605 L69.0832299,40.6851473 L69.2858518,40.4896398 L69.4907614,40.2966003 L69.6979764,40.1059856 L69.9076168,39.9177174 L70.1193935,39.7320577 L70.3333163,39.54897 L70.5496425,39.3682489 L70.7681413,39.190119 L70.9887582,39.0145955 L71.2116396,38.841591 L71.436536,38.6712981 L71.6635625,38.5036191 L71.8928352,38.3384969 L72.1240648,38.1761519 L72.3572416,38.0165707 L72.5925607,37.8596363 L72.8300003,37.7053859 L73.0693755,37.5539541 L73.3105488,37.4054203 L73.553761,37.2596343 L73.798931,37.1166827 L74.0459743,36.9766053 L74.2949279,36.8394081 L74.5456948,36.7051437 L74.7983929,36.5737683 L75.0528027,36.4454151 L75.308952,36.3200598 L75.5669096,36.1976967 L75.8266169,36.078357 L76.0880278,35.9620895 L76.3511412,35.8488908 L76.6159512,35.7387999 L76.8823671,35.6318493 L77.1503719,35.5280747 L77.4199825,35.4274649 L77.6911416,35.3300786 L77.9637941,35.2359244 L78.2380632,35.1449979 L78.5138305,35.0573465 L78.7909682,34.9730373 L79.0695375,34.892043 L79.3495078,34.8144144 L79.6308814,34.7401398 L79.9136729,34.6692671 L80.1975663,34.6018638 L80.4828747,34.5378725 L80.7694844,34.4773533 L81.0572683,34.4203404 L81.3462814,34.3668419 L81.6364635,34.3168888 L81.9276995,34.2705165 L82.2201097,34.2277137 L82.5136214,34.1885297 L82.8080687,34.1529855 L83.1036059,34.1210868 L83.4000927,34.0928688 L83.6974656,34.068352 L83.995825,34.0475419 L84.2950554,34.0304784 L84.5951366,34.0171679 L84.8960038,34.0076434 L85.1976423,34.0019098 L85.4999997,34 L85.8023572,34.0019098 L86.1039956,34.0076434 L86.4048629,34.0171679 L86.7049441,34.0304784 L87.0041745,34.0475419 L87.3025339,34.068352 L87.5998917,34.0928675 L87.89641,34.1210868 L88.1919479,34.1529875 L88.4863781,34.1885297 L88.7798898,34.2277137 L89.0722999,34.2705164 L89.363536,34.3168888 L89.653718,34.3668418 L89.9427312,34.4203403 L90.230515,34.4773532 L90.5170895,34.5378651 L90.8024496,34.6018637 L91.0863632,34.6692761 L91.3690768,34.7401293 L91.6505077,34.814414 L91.9305043,34.8920548 L92.2090309,34.9730365 L92.4861686,35.0573457 L92.7619359,35.1449971 L93.0361533,35.2359065 L93.3088736,35.3300778 L93.580069,35.4274837 L93.8496269,35.5280736 L94.1176317,35.6318482 L94.3840475,35.7387988 L94.6487964,35.8488642 L94.9119874,35.9620884 L95.1734437,36.0783842 L95.4330892,36.1976953 L95.6910468,36.3200583 L95.9471961,36.4454136 L96.2016059,36.5737668 L96.454304,36.7051423 L96.7050709,36.8394066 L96.9540245,36.9766038 L97.2010678,37.1166812 L97.4461627,37.2595892 L97.6893903,37.4053734 L97.9307148,37.5540001 L98.1700746,37.7054337 L98.4074384,37.8596349 L98.6427575,38.0165692 L98.8759344,38.1761504 L99.1071639,38.3384955 L99.3364366,38.5036176 L99.5634219,38.6712662 L99.7884095,38.8416214 L100.011274,39.0146269 L100.231817,39.1900844 L100.450357,39.3682474 L100.66664,39.548933 L100.880571,39.7320195 L101.092432,39.9177533 L101.302064,40.1060225 L101.509194,40.2965594 L101.714155,40.4896383 L101.916768,40.6851458 L102.11692,40.8829164 L102.314862,41.0832234 L102.510403,41.2858893 L102.703482,41.4908415 L102.894045,41.6980191 L103.082161,41.90748 L103.267908,42.1193367 L103.451157,42.3334578 L103.631792,42.5497023 L103.809831,42.7680813 L103.985405,42.988759 L104.158411,43.2116443 L104.328684,43.4365145 L104.49637,43.663548 L104.661434,43.8927397 L104.823856,44.1240569 L104.983521,44.3573787 L105.140403,44.5926283 L105.294596,44.8299838 L105.445976,45.0692691 L105.59458,45.310542 L105.740342,45.5537283 L105.88331,45.7989053 L106.02343,46.0460394 L106.160628,46.2949938 L106.294848,46.5456953 L106.42618,46.7982932 L106.554585,47.0527952 L106.679907,47.3088855 L106.802311,47.5669018 L106.921706,47.8267579 L107.037933,48.0880905 L107.151053,48.3510304 L107.261179,48.6158799 L107.368179,48.8824399 L107.471925,49.1503725 L107.572525,49.4199565 L107.669939,49.6911824 L107.764093,49.9638621 L107.854978,50.2380055 L107.942606,50.5136809 L108.026993,50.7910366 L108.10797,51.0696156 L108.185586,51.3495 L108.259831,51.6308059 L108.330717,51.9135688 L108.398172,52.1977153 L108.462126,52.4829008 L108.522634,52.7694306 L108.579653,53.0572382 L108.633143,53.3461944 L108.683105,53.6363852 L108.729504,53.9277822 L108.772298,54.2202092 L108.811468,54.5136109 L108.847003,54.8079806 L108.87892,55.1035975 L108.90713,55.4001004 L108.931655,55.6974655 L108.952456,55.9958298 L108.969533,56.2951395 L108.982825,56.5952025 L108.992357,56.8959986 L108.998081,57.1976447 L109,57.5000004 L108.998081,57.8023561 L108.992357,58.1040022 L108.982825,58.4047983 L108.969533,58.7048613 L108.952456,59.0041766 L108.931655,59.3025273 L108.90713,59.5998938 L108.87892,59.8964033 L108.847003,60.1920202 L108.811468,60.48639 L108.772298,60.7797916 L108.729504,61.0722186 L108.683103,61.3636292 L108.633143,61.6537984 L108.579656,61.9427483 L108.522631,62.230587 L108.462126,62.5170919 L108.398171,62.8022869 L108.330717,63.0864244 L108.259836,63.3691761 L108.18558,63.6505224 L108.107963,63.9303996 L108.027,64.2089342 L107.942606,64.4863213 L107.85497,64.7620125 L107.764101,65.0361059 L107.669948,65.3087929 L107.572525,65.5800443 L107.471915,65.8496566 L107.368167,66.1175819 L107.261179,66.384114 L107.151066,66.6489331 L107.037947,66.9118802 L106.921706,67.1732429 L106.802311,67.433099 L106.679891,67.6911489 L106.554584,67.9471976 L106.426198,68.2016741 L106.294848,68.4543055 L106.160608,68.705043 L106.02343,68.9539534 L105.88331,69.2010965 L105.740342,69.4462641 L105.594603,69.6894215 L105.445976,69.930731 L105.294596,70.1700164 L105.140403,70.4073718 L104.983521,70.6426214 L104.823856,70.8759432 L104.661405,71.1073009 L104.49637,71.3364438 L104.328684,71.5634863 L104.158411,71.7883475 L103.985405,72.0112418 L103.809832,72.23191 L103.631827,72.4502562 L103.451122,72.6665842 L103.267908,72.8806547 L103.082199,73.0924778 L102.894007,73.3020232 L102.703443,73.5091925 L102.510403,73.7141028 L102.314904,73.9167257 L102.116963,74.1170408 L101.916768,74.3148536 L101.714155,74.5103611 L101.509149,74.703483 L101.302018,74.8940115 L101.09248,75.0821962 L100.88062,75.267938 L100.666591,75.4511084 L100.450357,75.6317436 L100.231817,75.8099158 L100.011221,75.9854061 L99.7884629,76.1583295 L99.5634763,76.328693 L99.3363814,76.4964226 L99.1071639,76.6614956 L98.8759916,76.8238096 L98.6427575,76.9834299 L98.4073794,77.1404037 L98.1700145,77.2945961 L97.9307755,77.4459532 L97.6893902,77.5946267 L97.4462252,77.7403641 L97.201131,77.8832899 L96.9539599,78.0234305 L96.7050055,78.1606281 L96.454304,78.2948484 L96.2016725,78.4261984 L95.9471961,78.5545851 L95.6909787,78.6799739 L95.4330891,78.8022954 L95.173444,78.9216156 L94.9119172,79.0379334 L94.6487967,79.1511272 L94.3841194,79.2611629 L94.1177043,79.3681226 L93.8496272,79.4719251 L93.5800693,79.572515 L93.3087998,79.6699475 L93.0360789,79.7641097 L92.762011,79.8549691 L92.4861686,79.9426534 L92.2089547,80.0269765 L91.9305807,80.1079138 L91.650508,80.1855851 L91.3691543,80.2598405 L91.0864414,80.3307118 L90.8022938,80.3981706 L90.5170898,80.4621253 L90.2305939,80.5226298 L89.9427312,80.5796581 L89.6536391,80.6331712 L89.3634567,80.6831152 L89.0723792,80.729462 L88.779969,80.7722739 L88.4863777,80.8114684 L88.1918683,80.8470203 L87.8964096,80.8789032 L87.600051,80.9071165 L87.3025339,80.9316544 L87.0040152,80.9524663 L86.7048641,80.9695162 L86.4049418,80.9828196 L86.1039952,80.9923558 L85.8023565,80.9980802 L85.4999994,80.9999992 L85.5000001,81 Z M85.5000001,70.5553823 L85.6701212,70.5543026 L85.8395045,70.551088 L86.0081236,70.545745 L86.1762817,70.5382861 L86.3436404,70.5287477 L86.5100607,70.5171453 L86.6758548,70.5034714 L86.8411792,70.4877325 L87.0056902,70.4699801 L87.1694367,70.4502134 L87.3323598,70.4284632 L87.494636,70.4047042 L87.6564454,70.37894 L87.8172653,70.3512609 L87.9772904,70.3216391 L88.136603,70.2900778 L88.2952832,70.2565663 L88.4532848,70.2211359 L88.6102579,70.1838693 L88.7666097,70.1446744 L88.9222071,70.1036088 L89.0769151,70.0607044 L89.2311226,70.0158683 L89.3842915,69.9692774 L89.5365471,69.9208784 L89.6882925,69.8705712 L89.8390715,69.8185119 L89.9889031,69.7646967 L90.1380473,69.7090409 L90.2862445,69.6516572 L90.4336191,69.5924895 L90.5802189,69.5315429 L90.7258334,69.4688996 L90.8704428,69.4045825 L91.0143063,69.3384699 L91.157298,69.2706464 L91.2992487,69.201178 L91.4402275,69.1300525 L91.5802808,69.0572349 L91.7194652,68.9827183 L91.8575694,68.9066095 L91.9945728,68.8289316 L92.1307401,68.7495264 L92.2659233,68.6685063 L92.3998876,68.5859954 L92.5329712,68.5017986 L92.6649016,68.4160963 L92.7957057,68.328863 L92.925541,68.2400064 L93.0542965,68.1496026 L93.181808,68.057774 L93.3081866,67.9644325 L93.4334466,67.8695837 L93.5575932,67.7732108 L93.6805894,67.6753638 L93.8022718,67.5761576 L93.9228328,67.4754448 L94.0421722,67.3733116 L94.1601963,67.2698373 L94.2770006,67.1649364 L94.3926705,67.058538 L94.5068957,66.9509344 L94.619859,66.8419324 L94.7316126,66.7315091 L94.8419085,66.6198896 L94.9509042,66.5069224 L95.0585892,66.3926159 L95.1649527,66.276984 L95.2698606,66.1601724 L95.3733669,66.0421116 L95.4754565,65.9228281 L95.5760858,65.802361 L95.6754447,65.6804848 L95.7732369,65.5575755 L95.8695133,65.4335365 L95.9644379,65.3081798 L96.0578371,65.1817202 L96.149718,65.0541479 L96.2399849,64.9255922 L96.3287825,64.7958302 L96.4161077,64.6648832 L96.50181,64.5329581 L96.585983,64.399907 L96.6685404,64.2658672 L96.7495598,64.1306906 L96.8289224,63.994597 L96.9066212,63.8575517 L96.9827492,63.7194175 L97.0572466,63.580269 L97.1300642,63.4402157 L97.2011897,63.299237 L97.2707408,63.1571176 L97.3384941,63.0143005 L97.404504,62.8706333 L97.468898,62.7258457 L97.5316157,62.580058 L97.5925134,62.4336004 L97.6516238,62.2863427 L97.7090628,62.1380076 L97.7646982,61.9889178 L97.8185236,61.8390538 L97.8705916,61.6882552 L97.9208901,61.5365357 L97.9693369,61.3841288 L98.0158852,61.2311332 L98.0606668,61.077072 L98.1036253,60.9221685 L98.1446903,60.766578 L98.1838753,60.6102653 L98.2211466,60.4532678 L98.256577,60.2952714 L98.2900883,60.136586 L98.3216526,59.9772639 L98.3513007,59.8170967 L98.3789923,59.6562635 L98.404702,59.4948013 L98.4284509,59.3325135 L98.4502252,59.1694152 L98.4700089,59.0055289 L98.4877554,58.8411618 L98.5034688,58.6760022 L98.5171559,58.5100436 L98.5287694,58.3434696 L98.5383093,58.1762608 L98.5457508,58.0082717 L98.5510987,57.8395024 L98.5543132,57.6701122 L98.5553929,57.4999897 L98.5543132,57.3298671 L98.5510987,57.1604769 L98.5457508,56.9917076 L98.5383093,56.8237186 L98.5287691,56.6565041 L98.5171559,56.4899294 L98.5034694,56.3239834 L98.4877554,56.1588172 L98.4700089,55.9944501 L98.4502252,55.8305638 L98.4284509,55.6674655 L98.404702,55.5051777 L98.3789901,55.3437019 L98.3513007,55.1828764 L98.3216555,55.0227297 L98.290085,54.8633762 L98.2565769,54.7047013 L98.2211465,54.5467098 L98.1838753,54.389707 L98.1446955,54.2334198 L98.1036197,54.0777889 L98.0606605,53.9228783 L98.0158915,53.7688615 L97.9693362,53.6158488 L97.9208813,53.4634119 L97.8705993,53.311742 L97.818532,53.1609503 L97.7646975,53.0110608 L97.7090515,52.8619427 L97.6516119,52.7136007 L97.5925127,52.5663709 L97.5316275,52.4199437 L97.4689106,52.2741626 L97.404503,52.1293447 L97.3384931,51.9856775 L97.270724,51.8428268 L97.201189,51.7007347 L97.1300809,51.5597957 L97.0572459,51.4197086 L96.9827293,51.2805242 L96.9066205,51.14242 L96.8289216,51.0053795 L96.749559,50.8692807 L96.6685627,50.7341471 L96.5859826,50.6000703 L96.5018096,50.4670192 L96.4161073,50.335094 L96.3287821,50.2041471 L96.2399845,50.0743851 L96.149689,49.9457888 L96.0578367,49.8182511 L95.9644375,49.6917968 L95.869513,49.5664352 L95.7732365,49.442401 L95.6754443,49.3194865 L95.57612,49.1976578 L95.4754208,49.0771073 L95.3733666,48.9578601 L95.2698979,48.8398471 L95.1649139,48.722951 L95.0585497,48.6073128 L94.9509042,48.4930482 L94.8419497,48.380124 L94.7316549,48.2685108 L94.6198587,48.1580452 L94.5068953,48.0490432 L94.3926244,47.9413966 L94.2769534,47.8349923 L94.1602431,47.7301759 L94.04222,47.6267079 L93.9227828,47.5244909 L93.8022714,47.4238144 L93.680589,47.3246134 L93.5575404,47.2267196 L93.4334996,47.1304292 L93.3082407,47.0355863 L93.1817525,46.9421638 L93.0542961,46.8503701 L92.9255979,46.7600117 L92.7957053,46.671116 L92.6648422,46.5838432 L92.5329108,46.4981353 L92.399948,46.4140151 L92.2659229,46.3314716 L92.1308022,46.2504836 L91.994636,46.1710889 L91.8575047,46.0933335 L91.7193995,46.0172244 L91.5802801,45.9427374 L91.4402935,45.8699597 L91.299248,45.7988003 L91.1572289,45.7292984 L91.0143052,45.6615021 L90.8704417,45.5953948 L90.7257621,45.5310413 L90.5802181,45.4684284 L90.4336903,45.4075118 L90.2863164,45.3483497 L90.1380466,45.290938 L89.9889023,45.2352823 L89.8389967,45.1814405 L89.688217,45.129376 L89.5366214,45.0791187 L89.3842907,45.0307013 L89.2310457,44.984082 L89.0769908,44.9392904 L88.9222068,44.8963699 L88.7666865,44.8553196 L88.6103357,44.8161352 L88.4531286,44.7788081 L88.2952831,44.7434074 L88.1366816,44.7099178 L87.9772903,44.6783408 L87.8171863,44.6487044 L87.656366,44.6210201 L87.4947153,44.5952811 L87.3324394,44.5715274 L87.169437,44.5497665 L87.0056109,44.5299902 L86.8411791,44.5122412 L86.6760143,44.4965227 L86.510061,44.4828407 L86.3434814,44.4712221 L86.1762023,44.4616831 L86.0082031,44.4542312 L85.8395051,44.4488908 L85.6701216,44.4456712 L85.5000008,44.4445966 L85.3298799,44.4456712 L85.1604964,44.4488908 L84.9917984,44.4542312 L84.8237992,44.4616831 L84.6565201,44.4712221 L84.4899405,44.4828407 L84.3240025,44.4965214 L84.1588346,44.5122412 L83.9943735,44.5299923 L83.8305645,44.5497665 L83.6675621,44.5715274 L83.5052862,44.5952812 L83.3436355,44.6210201 L83.1828152,44.6487044 L83.0227112,44.6783409 L82.8633199,44.7099178 L82.7047536,44.7434 L82.5468851,44.7788081 L82.3896291,44.8161446 L82.2333559,44.8553094 L82.077807,44.8963698 L81.922968,44.9393025 L81.7689554,44.9840817 L81.6157104,45.0307009 L81.4633797,45.0791183 L81.3118355,45.1293585 L81.1610163,45.1814401 L81.0110457,45.2353018 L80.8619542,45.290938 L80.7136844,45.3483497 L80.5663105,45.4075118 L80.4198438,45.4684033 L80.2742506,45.5310416 L80.1294966,45.5954237 L79.9856953,45.6615028 L79.8427716,45.729299 L79.7007525,45.798801 L79.559707,45.8699603 L79.4197204,45.9427381 L79.280601,46.017225 L79.1424957,46.0933341 L79.0053645,46.1710896 L78.8692733,46.2504403 L78.7341659,46.3314262 L78.5999896,46.4140625 L78.4670139,46.4981845 L78.3351586,46.5838432 L78.2042955,46.671116 L78.0744029,46.7600117 L77.9457047,46.85037 L77.8182483,46.9421637 L77.6918013,47.0355559 L77.5664659,47.1304606 L77.4424139,47.2267521 L77.319453,47.3245802 L77.1977294,47.4238144 L77.0772602,47.5244556 L76.9578294,47.6266716 L76.8397221,47.7302136 L76.7230058,47.835031 L76.6074194,47.9413575 L76.4931118,48.0490435 L76.3801435,48.1580455 L76.2683955,48.2684685 L76.1580155,48.3801676 L76.0490551,48.4930929 L75.9414514,48.6073132 L75.8351299,48.7229049 L75.7301518,48.8397999 L75.6266412,48.9578604 L75.5245447,49.0771572 L75.4237973,49.1977594 L75.3245921,49.3194355 L75.2268111,49.4423489 L75.1304058,49.5665423 L75.035557,49.6917971 L74.9422448,49.8181407 L74.8503582,49.9457329 L74.7599831,50.0744427 L74.67118,50.2042053 L74.5838935,50.3350943 L74.4981912,50.4670195 L74.4140182,50.6000706 L74.3314381,50.7341474 L74.2504791,50.8692185 L74.1710854,51.0053799 L74.093345,51.1424845 L74.0172719,51.2805245 L73.9427906,51.4196432 L73.8699262,51.559796 L73.798779,51.7008024 L73.7293103,51.842759 L73.661514,51.9856778 L73.5954671,52.1294145 L73.5310906,52.2741626 L73.468404,52.4198724 L73.4074947,52.5663705 L73.3483613,52.7136729 L73.2909496,52.8619427 L73.2353037,53.0110608 L73.1814692,53.1609503 L73.1294019,53.3117419 L73.0791446,53.4633368 L73.030695,53.615773 L72.9840706,53.7690134 L72.9393134,53.9229548 L72.8964021,54.0777116 L72.8553262,54.2333426 L72.8161321,54.389707 L72.7788372,54.546788 L72.7434242,54.7047013 L72.7099161,54.8633762 L72.6783613,55.0226508 L72.6487212,55.182797 L72.6210182,55.3437018 L72.5952937,55.5052569 L72.5715396,55.6675451 L72.5497759,55.8305638 L72.5300019,55.9943708 L72.5122519,56.1588172 L72.4965328,56.3239837 L72.4828514,56.4899294 L72.4712331,56.6565044 L72.4616981,56.8237182 L72.4542479,56.9917869 L72.4489026,57.1604769 L72.445688,57.3298671 L72.4446083,57.4999896 L72.445688,57.6701122 L72.4489026,57.8395024 L72.4542479,58.0081924 L72.4616981,58.1762611 L72.4712328,58.3434693 L72.4828514,58.5100436 L72.4965334,58.6760018 L72.512252,58.8411617 L72.530002,59.0056082 L72.549776,59.1694151 L72.5715397,59.3324339 L72.5952937,59.494722 L72.621016,59.6562635 L72.6487212,59.8171756 L72.6783642,59.9773425 L72.7099129,60.136586 L72.7434243,60.2952714 L72.7788372,60.4531898 L72.8161322,60.6102656 L72.8553315,60.7666555 L72.8963965,60.9222456 L72.9393075,61.0769955 L72.9840776,61.2309812 L73.0306954,61.3842046 L73.079137,61.5366107 L73.1294106,61.6882552 L73.1814787,61.8390538 L73.235304,61.9889178 L73.2909395,62.1380076 L73.3483505,62.2862704 L73.4074951,62.4336007 L73.4684173,62.5801292 L73.5311046,62.725846 L73.5954679,62.8705637 L73.6615148,63.0143004 L73.7292953,63.1571857 L73.7987801,63.2991695 L73.8699451,63.4402157 L73.942792,63.580335 L74.0172541,63.7194178 L74.0933465,63.8574877 L74.1710869,63.9945973 L74.2504809,64.1307535 L74.3314626,64.2658675 L74.41402,64.3999073 L74.498193,64.5329584 L74.5838953,64.6648836 L74.6711817,64.7957725 L74.7599849,64.9255352 L74.8503317,65.0542044 L74.9422466,65.1818308 L75.0355588,65.3081797 L75.1304076,65.4334296 L75.2268129,65.5576282 L75.3245939,65.6805368 L75.4238333,65.8022604 L75.5245109,65.9227788 L75.626643,66.0421119 L75.730191,66.1602202 L75.8350929,66.2770307 L75.9414134,66.3926162 L76.0490565,66.5068783 L76.1580585,66.6198466 L76.2684396,66.731552 L76.380145,66.8419331 L76.4931132,66.9509351 L76.6073754,67.0585782 L76.7229608,67.1648987 L76.8397714,67.2698006 L76.9578797,67.3733486 L77.0772128,67.4754807 L77.1977312,67.5761583 L77.3194548,67.6753977 L77.4423633,67.7731787 L77.5665215,67.8695526 L77.6918579,67.9644632 L77.8181953,68.0577743 L77.9457068,68.1496029 L78.0744623,68.2400067 L78.2042976,68.3288633 L78.3351017,68.4160966 L78.4669563,68.5017497 L78.6000532,68.5859482 L78.7341687,68.6685521 L78.8693386,68.7495704 L79.0054309,68.828932 L79.1424343,68.9066099 L79.2805385,68.9827186 L79.4197229,69.0572352 L79.5597762,69.1300528 L79.7007549,69.2011783 L79.8427056,69.2706467 L79.9856974,69.3384702 L80.129499,69.4045545 L80.2741825,69.4688999 L80.4198459,69.5315683 L80.5663842,69.5924895 L80.7137589,69.6516572 L80.861956,69.7090409 L81.0110475,69.7646771 L81.160944,69.8185123 L81.3117626,69.8705887 L81.4634562,69.9208787 L81.6157119,69.9692777 L81.7688807,70.0158686 L81.923046,70.0606921 L82.0778084,70.1036087 L82.2334345,70.1446845 L82.3897084,70.1838598 L82.5467308,70.2211356 L82.7047551,70.2565733 L82.8634003,70.2900773 L83.0227129,70.3216386 L83.182738,70.3512604 L83.343558,70.3789395 L83.5053673,70.4047038 L83.6676435,70.4284627 L83.8305666,70.4502129 L83.994296,70.4699776 L84.1588364,70.4877321 L84.3241639,70.5034722 L84.4899427,70.5171449 L84.656363,70.5287473 L84.8237217,70.5382857 L84.9918798,70.5457446 L85.1604989,70.5510876 L85.3298821,70.5543021 L85.5000032,70.5553818 L85.5000001,70.5553823 Z"></path>
                <path d="M84.754261,116.999994 L84.1030809,116.997395 L83.4537387,116.989624 L82.8067044,116.976731 L82.1620356,116.958729 L81.5197371,116.935685 L80.8798141,116.907614 L80.2422915,116.87458 L79.6070968,116.836596 L78.97431,116.793714 L78.3440137,116.745973 L77.7160603,116.693427 L77.0905473,116.636082 L76.4675522,116.574028 L75.8468526,116.507259 L75.2286834,116.435832 L74.6129771,116.359806 L73.9996788,116.279189 L73.3889334,116.194051 L72.7806035,116.104422 L72.174754,116.010328 L71.5714949,115.911852 L70.9706613,115.809002 L70.3722781,115.701813 L69.7764878,115.590346 L69.1832305,115.474656 L68.5924237,115.354746 L68.0042398,115.230696 L67.4185238,115.102531 L66.8353708,114.970282 L66.2547683,114.834019 L65.6767312,114.693758 L65.1012695,114.549574 L64.5283133,114.401463 L63.9579951,114.249514 L63.3902698,114.093761 L62.82506,113.934222 L62.2624506,113.770952 L61.7024342,113.604002 L61.1450257,113.43341 L60.5902077,113.259224 L60.0380127,113.081484 L59.4883656,112.900223 L58.941409,112.715502 L58.3970553,112.527382 L57.8551846,112.335815 L57.3160919,112.14096 L56.7795596,111.942809 L56.2455903,111.741363 L55.7143915,111.536769 L55.1857481,111.328997 L54.6596827,111.11807 L54.1362552,110.904066 L53.6154757,110.687024 L53.0974042,110.467022 L52.5819832,110.244087 L52.0690726,110.018195 L51.5587999,109.789418 L51.0513103,109.557887 L50.5464236,109.323577 L50.0441024,109.086488 L49.5444416,108.846711 L49.0474438,108.604292 L48.5531315,108.359289 L48.0614172,108.111706 L47.5723708,107.861601 L47.0859774,107.609035 L46.6021569,107.353986 L46.1210594,107.09658 L45.6425674,106.836811 L45.1667083,106.574712 L44.6935523,106.310386 L44.2229891,106.043808 L43.7551015,105.775056 L43.2898768,105.504184 L42.8272626,105.231192 L42.3672889,104.956145 L41.9099406,104.679072 L41.4552153,104.400011 L41.0031879,104.119049 L40.5537835,103.836199 L40.1069371,103.55144 L39.6628212,103.264926 L39.2213332,102.97666 L38.7824181,102.686617 L38.3461686,102.394914 L37.912602,102.101599 L37.4815834,101.806642 L37.0531927,101.510103 L36.62745,101.212072 L36.2043428,100.912554 L35.783841,100.611601 L35.3659797,100.309245 L34.9507588,100.005565 L34.5380884,99.7005078 L34.1280435,99.3941807 L33.7206566,99.0866399 L33.3158626,98.7779019 L32.913679,98.4679918 L32.5140984,98.1569743 L32.1171533,97.8448848 L31.7227962,97.5317692 L31.3310045,97.2176046 L30.9418707,96.902539 L30.5552974,96.5865204 L30.1713271,96.2696257 L29.7899422,95.9518844 L29.4111853,95.6333651 L29.0350514,95.3141243 L28.6614254,94.9940971 L28.2904124,94.6733901 L27.9220723,94.3521346 L27.5562252,94.0302054 L27.1929485,93.7076861 L26.8280616,93.3808955 L26.1187888,92.7373792 L25.4155096,92.0883445 L24.7225122,91.4379793 L24.0398216,90.7866567 L23.3673478,90.1346043 L22.7051458,89.4821847 L22.0532007,88.8297339 L21.4114548,88.1774979 L20.7799082,87.5258083 L20.1585785,86.8749863 L19.5474455,86.2253656 L18.9464619,85.577186 L18.3556425,84.9307958 L17.77498,84.2864975 L17.2044617,83.6446037 L16.6440802,83.0054254 L16.0937755,82.3692169 L15.5535951,81.7363183 L15.0235315,81.1070714 L14.5035396,80.4817224 L13.993642,79.8606217 L13.4938012,79.2440384 L13.0040122,78.6322747 L12.524285,78.0256541 L12.054602,77.4244789 L11.5949558,76.8290452 L11.1453464,76.239668 L10.7057513,75.656635 L10.2761654,75.0802446 L9.85659629,74.5108199 L9.44702144,73.9486446 L9.04744836,73.3940337 L8.65788205,72.8473104 L8.2782775,72.308727 L7.90865221,71.7786026 L7.54900618,71.2572584 L7.19932942,70.7449802 L6.85961691,70.2420807 L6.52987116,69.7488603 L6.21007968,69.2656256 L5.90021994,68.792631 L5.60033447,68.3302519 L5.31039076,67.8787615 L5.0303813,67.4384371 L4.76030359,67.0095959 L4.50016264,66.5925318 L4.24713295,66.1829966 L3.77952035,65.4154876 L3.34861674,64.6950475 L2.95740014,64.0290071 L2.60585554,63.4197691 L2.29398545,62.8697694 L2.02177987,62.3814292 L1.78922404,61.9571428 L1.59288636,61.5929686 L1.33258788,61.099012 L-5.68434189e-14,58.4981933 L1.33421317,55.8981045 L1.59488922,55.404173 L1.79146944,55.0400738 L2.02430607,54.6158709 L2.29685421,54.1275745 L2.60911687,53.5776164 L2.96106653,52.968466 L3.35273072,52.3024903 L3.78411941,51.5821128 L4.2522446,50.8146684 L4.50555685,50.4051457 L4.76597034,49.9881275 L5.0363156,49.5593343 L5.31660511,49.1190537 L5.60684887,48.6675758 L5.9070444,48.2052176 L6.21717918,47.732298 L6.53728322,47.2490758 L6.86733652,46.7558992 L7.20735158,46.2530394 L7.5573459,45.7407966 L7.91729949,45.2194983 L8.28723733,44.6894177 L8.66716194,44.1508656 L9.05706081,43.6041652 L9.45695144,43.0495981 L9.86685135,42.4874499 L10.286738,41.9180774 L10.7166239,41.3417433 L11.1565417,40.7587437 L11.6064886,40.1693811 L12.0664574,39.5739912 L12.5364404,38.9728743 L13.0164827,38.3662954 L13.5065768,37.7545798 L14.0067201,37.1380402 L14.5169277,36.5169708 L15.0372146,35.8916698 L15.5675933,35.2624375 L16.1080613,34.6295993 L16.6586235,33.9934492 L17.2193001,33.354298 L17.7900934,32.7124419 L18.3710435,32.0681685 L18.9621179,31.4218346 L19.5633416,30.7737134 L20.1747346,30.1241178 L20.7963094,29.4733354 L21.428081,28.8217021 L22.0700469,28.1695078 L22.7222446,27.5170674 L23.3846291,26.8647271 L24.0572754,26.2127289 L24.7401785,25.561423 L25.433351,24.9111016 L26.1368027,24.2621044 L26.846238,23.6186174 L27.21124,23.2918101 L27.5745617,22.969347 L27.9404213,22.6474763 L28.3088639,22.326202 L28.6799519,22.0055116 L29.0536154,21.685522 L29.4298469,21.3662603 L29.8086813,21.0477536 L30.1900662,20.7300748 L30.5740965,20.4131843 L30.9607173,20.0971886 L31.349881,19.7821439 L31.7416877,19.468021 L32.1360949,19.1548971 L32.533095,18.842818 L32.9327006,18.531813 L33.3349292,18.2219134 L33.7397282,17.9132004 L34.1471526,17.6056658 L34.5571876,17.2993763 L34.9698305,16.9943568 L35.3851088,16.6906492 L35.8029526,16.3883306 L36.2234494,16.0873842 L36.6465991,15.7878561 L37.0723093,15.4898608 L37.50064,15.1933692 L37.9316586,14.8984064 L38.3652427,14.6050848 L38.8014748,14.313388 L39.2403523,14.0233721 L39.6818128,13.735108 L40.1259037,13.4486084 L40.5726476,13.1639002 L41.0220445,12.8810315 L41.4740568,12.6000669 L41.9286946,12.3210377 L42.3859829,12.0439773 L42.8458967,11.7689357 L43.3084309,11.495963 L43.773618,11.2250738 L44.2414782,10.9563139 L44.7119188,10.6897689 L45.1850198,10.4254324 L45.6607789,10.1633589 L46.1391559,9.90360234 L46.6201758,9.64619625 L47.1038488,9.39117603 L47.5901922,9.13858133 L48.0791385,8.88848929 L48.5707004,8.64092496 L49.0649252,8.39591126 L49.5618179,8.15348991 L50.0613187,7.91373809 L50.5634574,7.67666829 L51.0682665,7.4423264 L51.5756887,7.21077083 L52.0857563,6.98203284 L52.5984368,6.75616876 L53.1137603,6.53320152 L53.6317293,6.31318118 L54.1523313,6.09615153 L54.6755637,5.88216054 L55.2013966,5.67125618 L55.7298699,5.46346681 L56.2609712,5.25884083 L56.794708,5.05741847 L57.3310378,4.85925917 L57.8699705,4.6643959 L58.4115486,4.47285889 L58.9557447,4.28470298 L59.5025338,4.09997804 L60.0519159,3.91872221 L60.6038959,3.74097992 L61.1584788,3.56678705 L61.7156647,3.39619032 L62.2754436,3.22923413 L62.8377905,3.06596897 L63.4027052,2.90643134 L63.970218,2.75065793 L64.5403037,2.59869817 L65.1129348,2.45060046 L65.6881414,2.30639523 L66.2659285,2.16613109 L66.8462285,2.02986247 L67.4290714,1.89761584 L68.0144698,1.7694394 L68.6024012,1.64537276 L69.192868,1.52546577 L69.7858327,1.40975764 L70.3813204,1.29828799 L70.9793361,1.1910975 L71.5798296,1.08823767 L72.1828136,0.989741461 L72.7883056,0.895650371 L73.396278,0.806011951 L74.0067133,0.720866037 L74.6195966,0.640254547 L75.2349477,0.564212103 L75.8527644,0.492785629 L76.4730264,0.426013292 L77.0957139,0.363942641 L77.7208193,0.30660642 L78.3483577,0.254049052 L78.9782865,0.206308911 L79.6106282,0.163425622 L80.2453728,0.125440272 L80.8824878,0.0923943622 L81.5219808,0.064324182 L82.1638416,0.0412695655 L82.8080679,0.023270326 L83.4546647,0.0103667357 L84.1035718,0.0025990251 L84.7542767,7.10542736e-15 L85.4358221,0.00258663688 L86.1142444,0.0103051074 L86.7901088,0.0231271314 L87.4633777,0.0410131042 L88.1340262,0.0639236085 L88.8020642,0.0918190187 L89.4674792,0.124660126 L90.1303038,0.162411477 L90.7904829,0.205032611 L91.4480191,0.25248265 L92.1029248,0.304722805 L92.755185,0.361715951 L93.4047797,0.423417874 L94.051734,0.489796041 L94.6960228,0.560804986 L95.3376336,0.636407168 L95.976559,0.716557123 L96.6128089,0.801220022 L97.2463783,0.89035457 L97.8772497,0.983921768 L98.5054082,1.08187615 L99.1308661,1.18417705 L99.7536336,1.29079089 L100.373686,1.40167074 L100.990992,1.51677426 L101.605591,1.63606038 L102.217461,1.75949509 L102.826599,1.88702856 L103.432981,2.01862198 L104.036603,2.15422511 L104.637524,2.29381394 L105.235674,2.43733886 L105.83105,2.58474834 L106.423677,2.73601173 L107.013536,2.89108147 L107.600642,3.04991961 L108.184953,3.21247755 L108.766516,3.37872131 L109.345295,3.54860771 L109.921287,3.72208773 L110.494471,3.89911446 L111.064889,4.07965661 L111.632529,4.26367351 L112.197387,4.45112095 L112.759416,4.64194595 L113.318637,4.83610222 L113.875106,5.03357244 L114.428778,5.23430761 L114.979613,5.43824495 L115.527622,5.64534399 L116.072854,5.8555768 L116.61528,6.06889833 L117.154917,6.28526894 L117.691745,6.50464693 L118.225746,6.72697599 L118.756923,6.9522144 L119.285291,7.18032463 L119.810844,7.41126705 L120.333626,7.64501247 L120.853548,7.88149414 L121.37067,8.12067244 L121.884973,8.36251817 L122.396476,8.60697919 L122.905176,8.85403048 L123.41101,9.10358652 L123.914104,9.3556661 L124.414347,9.61018786 L124.911772,9.86710177 L125.40641,10.1264015 L125.898229,10.3880163 L126.387213,10.6519043 L126.873394,10.918026 L127.356787,11.1863604 L127.837414,11.4568701 L128.315159,11.7294632 L128.7901,12.0041127 L129.262311,12.2808394 L129.731674,12.5595329 L130.198219,12.8401575 L130.662033,13.122728 L131.12302,13.4071567 L131.581148,13.6933622 L132.036511,13.9813593 L132.489148,14.2711396 L132.93898,14.5626196 L133.385947,14.8557075 L133.83021,15.1504535 L134.271681,15.4467865 L134.710328,15.7446171 L135.14621,16.0439575 L135.579337,16.3447599 L136.009668,16.646968 L136.437266,16.9505693 L136.862071,17.2555011 L137.284035,17.5616655 L137.703324,17.8691355 L138.119853,18.1778339 L138.533589,18.4876751 L138.944556,18.7986405 L139.352773,19.1106966 L139.758255,19.4238163 L140.160949,19.7379205 L140.560912,20.0529965 L140.958214,20.3690756 L141.352717,20.6860161 L141.744413,21.003745 L142.133399,21.3222997 L142.519653,21.6416261 L142.903243,21.9617345 L143.284085,22.2825417 L143.662132,22.6039327 L144.037478,22.9259557 L144.410099,23.2485481 L144.779979,23.5716535 L145.147227,23.8953158 L145.511759,24.2194515 L145.87346,24.5438937 L146.236719,24.8725551 L146.942506,25.5194207 L147.641715,26.171175 L148.330137,26.8236592 L149.007781,27.476525 L149.674722,28.1295264 L150.330892,28.7822797 L150.976399,29.4345198 L151.611249,30.0859758 L152.235391,30.7362389 L152.848892,31.3850463 L153.451764,32.0320788 L154.044073,32.6770779 L154.625796,33.3197141 L155.196924,33.9596265 L155.757563,34.5966046 L156.307633,35.2302645 L156.847163,35.8602642 L157.376287,36.4864454 L157.894894,37.1083907 L158.403031,37.725777 L158.900771,38.3383978 L159.388077,38.9458818 L159.864962,39.5479121 L160.331459,40.144203 L160.787584,40.7344541 L161.233408,41.3184193 L161.668825,41.8956856 L162.093925,42.4659633 L162.508774,43.0290875 L162.913307,43.5846348 L163.307547,44.1323071 L163.691517,44.6718103 L164.065216,45.2028147 L164.42871,45.7250828 L164.78197,46.2382787 L165.125048,46.7421271 L165.457897,47.2362755 L165.780576,47.7204404 L166.093117,48.1943902 L166.395425,48.6576515 L166.687637,49.11007 L166.969764,49.5514017 L167.241705,49.9811501 L167.503531,50.3990839 L167.758276,50.8097849 L168.228389,51.5788999 L168.661408,52.3011898 L169.054232,52.9690258 L169.407019,53.5800804 L169.719775,54.1318696 L169.992588,54.6219178 L170.225631,55.0480061 L170.418853,55.4075212 L170.5723,55.6979376 L170.687791,55.9202061 L172,58.4961858 L170.691134,61.0737713 L170.575911,61.296213 L170.422816,61.5868212 L170.230079,61.9464615 L169.997648,62.3726207 L169.725512,62.8628045 L169.413505,63.4147188 L169.061563,64.0259006 L168.669636,64.6938617 L168.23762,65.4162497 L167.768514,66.1855377 L167.514302,66.5963097 L167.253038,67.0142977 L166.981628,67.4441608 L166.700096,67.8855133 L166.408477,68.3380027 L166.106733,68.80136 L165.794806,69.2753723 L165.472706,69.7596415 L165.140495,70.2538212 L164.798055,70.7577322 L164.445397,71.2710344 L164.082536,71.7933797 L163.70944,72.324503 L163.326085,72.8640958 L162.932505,73.4118057 L162.528636,73.9674031 L162.114436,74.5306003 L161.689936,75.1010239 L161.255161,75.6783403 L160.810035,76.2623326 L160.354507,76.8527172 L159.888637,77.4490894 L159.412388,78.0512031 L158.925687,78.6587894 L158.42858,79.2714748 L157.92104,79.8889696 L157.403051,80.5109691 L156.874575,81.1371961 L156.3356,81.7673293 L155.786085,82.4010935 L155.226041,83.0381279 L154.655491,83.6781071 L154.074335,84.3208183 L153.482566,84.9659071 L152.880207,85.613046 L152.267184,86.2619722 L151.643539,86.9123083 L151.009217,87.5638018 L150.364185,88.21614 L149.708419,88.8690142 L149.041967,89.5220428 L148.364727,90.1750254 L147.676665,90.8276118 L146.977857,91.4794286 L146.272455,92.126336 L145.909326,92.4550891 L145.547784,92.7795564 L145.183495,93.1036754 L144.816333,93.4274419 L144.446625,93.7505536 L144.074162,94.0731876 L143.69887,94.3953108 L143.321026,94.7166706 L142.940326,95.0375173 L142.556819,95.3576842 L142.170728,95.6770126 L141.781834,95.9956195 L141.390205,96.313413 L140.99578,96.6303952 L140.598643,96.9464472 L140.198774,97.2615629 L139.796078,97.5757588 L139.390732,97.8888556 L138.98258,98.2009576 L138.571622,98.5119834 L138.157921,98.8218685 L137.741508,99.1305335 L137.322299,99.4380264 L136.900247,99.7443013 L136.475459,100.049258 L136.047951,100.352834 L135.617625,100.655082 L135.184504,100.955907 L134.748604,101.255292 L134.309904,101.55317 L133.868421,101.849524 L133.424135,102.144289 L132.977121,102.437408 L132.527302,102.728869 L132.074599,103.0187 L131.619132,103.306734 L131.160968,103.59295 L130.699877,103.877414 L130.236012,104.159987 L129.76938,104.44063 L129.299892,104.719363 L128.827541,104.996121 L128.352505,105.270773 L127.874635,105.543381 L127.3939,105.813893 L126.910382,106.082235 L126.424014,106.348394 L125.934875,106.612285 L125.442891,106.87392 L124.948088,107.13322 L124.450465,107.390165 L123.949962,107.644716 L123.44675,107.896762 L122.940644,108.146362 L122.431734,108.393401 L121.920071,108.637847 L121.405482,108.879722 L120.888061,109.11893 L120.367839,109.355422 L119.844867,109.589132 L119.319101,109.820056 L118.79035,110.048222 L118.258784,110.273485 L117.724565,110.495771 L117.187495,110.715122 L116.647509,110.931513 L116.104714,111.144843 L115.559115,111.355088 L115.010723,111.562181 L114.459583,111.766094 L113.90548,111.966848 L113.348657,112.164293 L112.78907,112.358446 L112.226529,112.549298 L111.661319,112.736706 L111.093293,112.920715 L110.522405,113.101259 L109.948754,113.278286 L109.372297,113.451756 L108.79306,113.621629 L108.211039,113.787861 L107.626203,113.95042 L107.038577,114.10925 L106.448233,114.264299 L105.855108,114.415549 L105.259138,114.562965 L104.660462,114.706464 L104.059018,114.846043 L103.454794,114.981639 L102.847797,115.11323 L102.238059,115.240744 L101.625641,115.364155 L101.0104,115.48344 L100.392473,115.598521 L99.7718136,115.709392 L99.1483435,115.815999 L98.5222229,115.918284 L97.8934393,116.016215 L97.2618778,116.109779 L96.6275882,116.198901 L95.9906557,116.283553 L95.3509577,116.363701 L94.7086443,116.439282 L94.0636278,116.510288 L93.4158584,116.576658 L92.7655435,116.63834 L92.1124882,116.695338 L91.4567674,116.747563 L90.7984486,116.795012 L90.1373993,116.837628 L89.4737196,116.875375 L88.8074494,116.908202 L88.1385612,116.936096 L87.4670151,116.958995 L86.7928711,116.976881 L86.1160965,116.989693 L85.436769,116.997414 L84.7542785,117 L84.754261,116.999994 Z M84.7552611,106.363637 L85.3555922,106.361362 L85.9539279,106.354562 L86.5495956,106.343286 L87.1426753,106.32755 L87.7331971,106.307414 L88.321126,106.282896 L88.9065144,106.254054 L89.4892748,106.220909 L90.0695073,106.183503 L90.6472519,106.141862 L91.2224035,106.096054 L91.7950346,106.046076 L92.3652178,105.991994 L92.9327556,105.933844 L93.4978604,105.871635 L94.0604773,105.805433 L94.6205537,105.73526 L95.1782072,105.661145 L95.7333153,105.583149 L96.2859629,105.501275 L96.8362301,105.415573 L97.3839718,105.326093 L97.9292081,105.232863 L98.4720665,105.135889 L99.0124995,105.035241 L99.5504295,104.930945 L100.086027,104.823015 L100.619148,104.711523 L101.149852,104.596472 L101.67814,104.477917 L102.204051,104.355867 L102.727573,104.230382 L103.248643,104.101493 L103.767402,103.969206 L104.283786,103.833583 L104.797729,103.694668 L105.309307,103.552471 L105.818542,103.407028 L106.325434,103.258372 L106.82995,103.106551 L107.332114,102.951585 L107.831882,102.793532 L108.32939,102.632368 L108.824555,102.468185 L109.317262,102.301026 L109.807766,102.130842 L110.29591,101.957749 L110.781648,101.781764 L111.265191,101.602861 L111.746356,101.421156 L112.225156,101.236651 L112.701665,101.049373 L113.175829,100.85936 L113.64778,100.666605 L114.117458,100.471175 L114.584693,100.273175 L115.049585,100.072564 L115.512336,99.8693176 L115.972755,99.6635617 L116.430831,99.4553214 L116.886582,99.2446235 L117.340039,99.0314834 L117.791297,98.815897 L118.240213,98.597981 L118.686805,98.3777333 L119.131168,98.1551623 L119.573174,97.9303619 L120.012904,97.7033111 L120.450359,97.4740642 L120.885538,97.2426359 L121.318467,97.0090698 L121.749043,96.7734412 L122.177374,96.5357248 L122.603391,96.2960022 L123.027149,96.0542628 L123.448678,95.8105484 L123.867797,95.5649821 L124.284653,95.3174949 L124.699302,95.0681161 L125.111592,94.8169605 L125.521592,94.5640175 L125.929424,94.3092433 L126.334888,94.05283 L126.737992,93.7947544 L127.138918,93.534975 L127.537553,93.2735792 L127.933853,93.0106505 L128.327863,92.746164 L128.719592,92.4801799 L129.109026,92.212711 L129.496174,91.9438156 L129.881024,91.6735082 L130.263627,91.4018181 L130.643889,91.1288266 L131.021821,90.8545692 L131.397502,90.5790041 L131.770916,90.3022128 L132.142011,90.024241 L132.510754,89.7451659 L132.877239,89.464925 L133.241466,89.1835913 L133.603309,88.901269 L133.962888,88.6179039 L134.320164,88.3335732 L134.675091,88.0483333 L135.027751,87.762161 L135.378113,87.4751191 L135.726214,87.1872096 L136.071868,86.8986432 L136.415234,86.6092613 L136.756454,86.3190514 L137.095164,86.0283264 L137.431638,85.7368673 L137.765867,85.4447637 L138.097578,85.1522556 L138.427099,84.8590696 L138.754367,84.5653602 L139.074983,84.2750961 L139.722008,83.681725 L140.355465,83.0908649 L140.979572,82.498935 L141.594374,81.9061541 L142.199865,81.3128602 L142.795976,80.7193786 L143.382724,80.1259846 L143.960149,79.5329305 L144.528182,78.9405877 L145.086803,78.34925 L145.636055,77.7591637 L146.17589,77.1706895 L146.706306,76.5840923 L147.227353,75.9996391 L147.738936,75.4177261 L148.241075,74.8386015 L148.733782,74.2625635 L149.217047,73.6899104 L149.690859,73.1209592 L150.155208,72.5560101 L150.610081,71.9953823 L151.05545,71.4393929 L151.491362,70.8882773 L151.917807,70.3423736 L152.334713,69.8020446 L152.742145,69.2675051 L153.14011,68.7390658 L153.528537,68.2171169 L153.907413,67.7019501 L154.276806,67.1937804 L154.636702,66.6929457 L154.987039,66.1998254 L155.327852,65.7146574 L155.659145,65.2377565 L155.98089,64.7694502 L156.293097,64.3100284 L156.595811,63.8597289 L156.888945,63.4190104 L157.172498,62.9881169 L157.446576,62.5672446 L157.711088,62.1568168 L157.966025,61.7571588 L158.211393,61.3685418 L158.44728,60.9911555 L158.67059,60.630314 L159.097643,59.9299933 L159.483366,59.285013 L159.830883,58.6927368 L159.939798,58.5035944 L159.829464,58.3124875 L159.481002,57.7200716 L159.094281,57.0750078 L158.666111,56.374514 L158.442239,56.013587 L158.205791,55.6361632 L157.959796,55.2474168 L157.704296,54.847738 L157.439159,54.4372393 L157.164458,54.0162856 L156.880268,53.5853296 L156.586464,53.1444902 L156.283138,52.6941739 L155.970257,52.234675 L155.647835,51.7662769 L155.315862,51.2892968 L154.974339,50.8040099 L154.623304,50.3107832 L154.262753,49.809913 L153.892683,49.3016933 L153.513111,48.7864536 L153.123942,48.2643753 L152.725304,47.7358693 L152.317195,47.2013048 L151.899541,46.6608402 L151.472413,46.1148718 L151.035793,45.5636729 L150.589714,45.0075812 L150.134161,44.4468887 L149.669094,43.8818333 L149.19462,43.3128133 L148.71069,42.7401143 L148.217258,42.1639407 L147.714454,41.5847285 L147.202216,41.0027425 L146.680526,40.4182226 L146.14946,39.8315482 L145.608977,39.2429844 L145.059082,38.6528084 L144.499814,38.0613519 L143.931183,37.4689235 L143.353226,36.8758485 L142.76586,36.2823565 L142.169152,35.688756 L141.56315,35.0954183 L140.947784,34.5025519 L140.323128,33.9105052 L139.689164,33.3195659 L139.041712,32.7261677 L138.720788,32.4358119 L138.393305,32.1420628 L138.063619,31.8489123 L137.731586,31.5562832 L137.397187,31.2641733 L137.060495,30.9726871 L136.721495,30.6818474 L136.380164,30.3916688 L136.036599,30.1022619 L135.690715,29.8136204 L135.342464,29.5257088 L134.991914,29.2386314 L134.639042,28.9523945 L134.283944,28.6671128 L133.926581,28.3828072 L133.566818,28.0994004 L133.204751,27.8169843 L132.840439,27.5356568 L132.473802,27.2553846 L132.104882,26.9762345 L131.733666,26.6982356 L131.360213,26.4214609 L130.984424,26.1458896 L130.60628,25.8715195 L130.225942,25.5985051 L129.843302,25.3268233 L129.458364,25.056493 L129.071128,24.78756 L128.681615,24.5200619 L128.289803,24.2540299 L127.895751,23.9895246 L127.499396,23.7265626 L127.100713,23.4651376 L126.699832,23.2053769 L126.296663,22.9472659 L125.891157,22.6908004 L125.48335,22.4360325 L125.07334,22.1830562 L124.661062,21.9318817 L124.246451,21.6824946 L123.829595,21.4349762 L123.410494,21.1893722 L122.989027,20.9456474 L122.565332,20.7038935 L122.139392,20.4641625 L121.711156,20.2264462 L121.280612,19.9907799 L120.847808,19.7572097 L120.412747,19.5257855 L119.975407,19.2965241 L119.535759,19.0694504 L119.093869,18.8446186 L118.649703,18.6220664 L118.203214,18.4017896 L117.754495,18.1838673 L117.303452,17.9683017 L116.850147,17.7551408 L116.394534,17.5444137 L115.936658,17.336154 L115.476517,17.1304175 L115.014053,16.9271982 L114.549308,16.7265546 L114.082276,16.5285152 L113.612945,16.3331124 L113.141345,16.1403908 L112.667428,15.9503716 L112.191207,15.7630856 L111.712662,15.5785674 L111.231802,15.3968446 L110.748675,15.2179744 L110.263259,15.0419863 L109.775513,14.868903 L109.285394,14.6987381 L108.792987,14.5315521 L108.298282,14.3673843 L107.801234,14.2062521 L107.301838,14.0481887 L106.800112,13.8932318 L106.296038,13.7414122 L105.789659,13.5927766 L105.280904,13.4473461 L104.769803,13.3051553 L104.25634,13.1662404 L103.740504,13.0306306 L103.22231,12.8983658 L102.701738,12.7694767 L102.178816,12.6440025 L101.653505,12.5219777 L101.12577,12.4034223 L100.595669,12.2883826 L100.063167,12.176894 L99.5282726,12.0689879 L98.9909502,11.9647003 L98.4512073,11.8640593 L97.9090541,11.7671096 L97.3644604,11.6738788 L96.8174313,11.5844057 L96.2679442,11.4987194 L95.7160442,11.4168648 L95.1616838,11.338874 L94.6048479,11.2647784 L94.0455291,11.1946145 L93.4837399,11.1284176 L92.9194727,11.0662281 L92.3527126,11.0080783 L91.7834671,10.9540085 L91.2116986,10.9040484 L90.6374196,10.8582397 L90.0606128,10.8166155 L89.4812929,10.7792145 L88.8994276,10.7460741 L88.3150294,10.7172317 L87.7280632,10.6927218 L87.1385516,10.672583 L86.546472,10.6568539 L85.9518295,10.6455727 L85.354589,10.6387778 L84.7552831,10.6365033 L84.1889281,10.6387655 L83.6254036,10.6455111 L83.0641944,10.6567107 L82.5052707,10.6723266 L81.9486074,10.6923211 L81.3942019,10.7166562 L80.8420769,10.7452939 L80.2922048,10.7782003 L79.7445731,10.8153389 L79.1991692,10.8566732 L78.6560008,10.9021645 L78.1150577,10.9517812 L77.5763351,11.0054821 L77.0398303,11.0632378 L76.5055209,11.1250097 L75.9734044,11.1907664 L75.4434608,11.2604688 L74.9157101,11.3340815 L74.3901548,11.4115684 L73.8667748,11.4928994 L73.3455278,11.5780441 L72.8264486,11.666958 L72.3095323,11.7596121 L71.7947613,11.8559721 L71.2821083,11.9560085 L70.7716156,12.0596752 L70.2632608,12.1669494 L69.7570139,12.277795 L69.2528848,12.3921815 L68.7508512,12.5100714 L68.2509779,12.6314211 L67.7531974,12.756215 L67.2574999,12.8844159 L66.7639127,13.015984 L66.2724259,13.1508902 L65.7830119,13.2891057 L65.2956884,13.4305892 L64.8104702,13.5753075 L64.3273323,13.723233 L63.8462498,13.8743397 L63.3672502,14.0285811 L62.890326,14.1859307 L62.4154671,14.3463552 L61.9427011,14.5098145 L61.4719905,14.6762885 L61.0033227,14.8457463 L60.5367253,15.0181406 L60.0722057,15.1934415 L59.6097415,15.3716232 L59.1493202,15.5526557 L58.6909492,15.7365016 L58.2346511,15.9231185 L57.7804234,16.112478 L57.328236,16.304556 L56.8780915,16.4993211 L56.4299924,16.6967346 L55.9839686,16.8967515 L55.5399876,17.0993566 L55.0980821,17.3044973 L54.6582094,17.5121688 L54.2203721,17.7223223 L53.7846326,17.9349077 L53.350926,18.1499185 L52.9192447,18.3673256 L52.4896388,18.5870665 L52.0621333,18.8091036 L51.6366632,19.0334369 L51.2132434,19.2600205 L50.7918665,19.4888252 L50.3725774,19.7197926 L49.9553487,19.9529124 L49.5401504,20.1881573 L49.1270724,20.4254482 L48.7160423,20.6648017 L48.3070475,20.9061761 L47.9001532,21.1495088 L47.4953342,21.394779 L47.0925855,21.6419617 L46.6919173,21.891011 L46.2933519,22.1418851 L45.8968393,22.394582 L45.5023921,22.6490558 L45.1100328,22.9052564 L44.7197964,23.1631318 L44.3316478,23.4226756 L43.9455571,23.6838669 L43.5616193,23.9466121 L43.1797294,24.2109589 L42.7999223,24.476824 L42.4222906,24.7441324 L42.0467242,25.0129215 L41.6732408,25.2831433 L41.3018977,25.5547187 L40.9326675,25.8276455 L40.5655351,26.1018884 L40.2005431,26.377395 L39.837644,26.6541551 L39.4768953,26.9320957 L39.118272,27.2112062 L38.761764,27.4914554 L38.4074139,27.7727787 L38.0551817,28.055174 L37.7050598,28.338612 L37.3571134,28.622999 L37.0113273,28.9083308 L36.6676291,29.1946177 L36.3261163,29.4817451 L35.9867513,29.7697214 L35.6495543,30.0584818 L35.3145326,30.3480055 L34.9816188,30.6383009 L34.6508554,30.9292928 L34.3222898,31.2209084 L34.0001704,31.5093184 L33.3496005,32.099411 L32.7120329,32.6876224 L32.0832218,33.2775627 L31.4631448,33.8689504 L30.8518468,34.4614851 L30.2493204,35.054875 L29.655643,35.6487737 L29.0707997,36.2429352 L28.4948105,36.837032 L27.9277078,37.4307827 L27.3694892,38.0238805 L26.8201972,38.6160211 L26.2798392,39.2068958 L25.7484679,39.7961854 L25.2260531,40.3836398 L24.7126324,40.9689209 L24.2082283,41.5517349 L23.7128558,42.1317688 L23.2265549,42.7087098 L22.7493056,43.282289 L22.2811379,43.852185 L21.8220718,44.4180871 L21.3721324,44.9796847 L20.931332,45.5366794 L20.4996632,46.0887918 L20.0771786,46.6356612 L19.6638856,47.1770142 L19.2597867,47.7125464 L18.8648795,48.2419847 L18.4792014,48.7649681 L18.1027924,49.2811859 L17.7356175,49.7903838 L17.3777118,50.2922259 L17.0290927,50.7864015 L16.6897703,51.2726123 L16.3597495,51.7505601 L16.0390628,52.2199112 L15.7276978,52.6803988 L15.4256795,53.1316869 L15.1330253,53.5734711 L14.8497328,54.0054573 L14.5758344,54.427314 L14.3113302,54.8387533 L14.0562201,55.2394812 L13.8105212,55.6291827 L13.5742605,56.0075242 L13.3502779,56.3696296 L12.9219722,57.0717939 L12.5345363,57.7187701 L12.1850371,58.3130484 L12.0759661,58.5018275 L12.1843277,58.6896222 L12.5333443,59.2838191 L12.9202802,59.9307474 L13.3480433,60.6328471 L13.571753,60.9949253 L13.8077229,61.3732355 L14.0531115,61.7628745 L14.3079141,62.1635606 L14.5721307,62.5749874 L14.845729,62.9968379 L15.1286765,63.428749 L15.4210182,63.8705041 L15.7227115,64.321763 L16.0337389,64.7821984 L16.3541005,65.2515307 L16.6837787,65.7294327 L17.0227561,66.2155997 L17.3710301,66.7097294 L17.7286033,67.2115506 L18.0954256,67.7207047 L18.471497,68.2368934 L18.8568201,68.7598392 L19.2513572,69.2892045 L19.6551136,69.8247033 L20.0680765,70.3660417 L20.4902111,70.912884 L20.9215173,71.464938 L21.3619676,72.021891 L21.8115545,72.5834406 L22.270273,73.149299 L22.7380956,73.7191491 L23.2149999,74.2926802 L23.7009907,74.8696067 L24.1960107,75.4495947 L24.7000647,76.0323336 L25.2131703,76.6175897 L25.7352675,77.2050045 L26.2663338,77.7942691 L26.8063717,78.385102 L27.3553412,78.9771842 L27.9132598,79.5702403 L28.4800774,80.1639639 L29.0557591,80.7580065 L29.6403223,81.3521263 L30.2337371,81.946 L30.835976,82.5393439 L31.4469964,83.1318078 L32.0668309,83.7231621 L32.695412,84.3130753 L33.332727,84.9012346 L33.9830844,85.4912959 L34.3051313,85.7797205 L34.6335543,86.0712964 L34.9641577,86.3622133 L35.2970215,86.6525274 L35.6319607,86.9420512 L35.9690227,87.2307573 L36.3083451,87.5187544 L36.6497779,87.8058839 L36.9933336,88.0921083 L37.3390547,88.3774338 L37.6869086,88.6617999 L38.036953,88.9452171 L38.3890727,89.2275707 L38.7433803,89.5088877 L39.0998332,89.7891411 L39.4583865,90.0682245 L39.8190878,90.3461692 L40.1818993,90.6228876 L40.5468663,90.8984047 L40.9139111,91.17261 L41.2830664,91.4454993 L41.6544069,91.7170872 L42.0278254,91.9872861 L42.4033542,92.2560523 L42.7809984,92.5233877 L43.160743,92.7892195 L43.542558,93.0535183 L43.9264958,93.3162551 L44.312589,93.5774528 L44.700735,93.8369903 L45.0909515,94.0948531 L45.4832983,94.351035 L45.8777529,94.6055109 L46.274213,94.8581598 L46.6728184,95.1090381 L47.0735192,95.3580978 L47.4762578,95.6052554 L47.8810793,95.8505069 L48.2879937,96.0938271 L48.6970009,96.3351827 L49.1081035,96.5745425 L49.5212465,96.811848 L49.9364349,97.0470574 L50.3537486,97.2801876 L50.7730801,97.511153 L51.1944821,97.7399285 L51.6179819,97.9665183 L52.0434795,98.1908224 L52.4711076,98.4128741 L52.900786,98.6326171 L53.3324997,98.8499888 L53.7663364,99.0650184 L54.2021908,99.2776141 L54.6400707,99.4877426 L55.0800084,99.6953868 L55.522069,99.9005419 L55.9662324,100.103181 L56.4123162,100.303181 L56.8604654,100.500551 L57.3107924,100.695332 L57.7631748,100.887437 L58.2175376,101.076799 L58.6739557,101.263405 L59.1324217,101.447228 L59.5930156,101.628254 L60.0557423,101.806476 L60.5203869,101.981769 L60.9871568,102.154155 L61.4560546,102.323637 L61.9268628,102.490082 L62.3998914,102.653553 L62.8749903,102.814005 L63.352087,102.971342 L63.8313067,103.125593 L64.3126092,103.276698 L64.7959946,103.424636 L65.2814603,103.569361 L65.769004,103.710847 L66.2586355,103.849053 L66.7504248,103.983973 L67.2443121,104.115559 L67.7402322,104.243755 L68.2383201,104.368553 L68.7385035,104.489922 L69.2408122,104.60781 L69.7452263,104.722202 L70.2517658,104.833043 L70.7604931,104.940335 L71.2712859,105.044006 L71.7842865,105.144045 L72.2994275,105.240423 L72.8166313,105.333071 L73.3360731,105.421987 L73.8577327,105.507144 L74.3814877,105.588487 L74.9074206,105.665976 L75.4355964,105.739604 L75.9658751,105.809308 L76.4984192,105.875066 L77.0331586,105.936853 L77.5700385,105.994605 L78.1092637,106.048315 L78.6506293,106.097946 L79.1942279,106.143433 L79.7401243,106.184782 L80.2881861,106.221922 L80.8384958,106.254829 L81.3911209,106.283464 L81.9460189,106.307806 L82.5031823,106.327795 L83.0626162,106.343417 L83.6243279,106.35461 L84.18842,106.361361 L84.7553001,106.363623 L84.7552611,106.363637 Z"></path>
            </g>
        </g>
    </g>
</svg>